G04 #@! TF.GenerationSoftware,KiCad,Pcbnew,6.0.5-a6ca702e91~116~ubuntu20.04.1*
G04 #@! TF.CreationDate,2022-05-19T12:12:02+02:00*
G04 #@! TF.ProjectId,octoserial,6f63746f-7365-4726-9961-6c2e6b696361,rev?*
G04 #@! TF.SameCoordinates,Original*
G04 #@! TF.FileFunction,Legend,Top*
G04 #@! TF.FilePolarity,Positive*
%FSLAX46Y46*%
G04 Gerber Fmt 4.6, Leading zero omitted, Abs format (unit mm)*
G04 Created by KiCad (PCBNEW 6.0.5-a6ca702e91~116~ubuntu20.04.1) date 2022-05-19 12:12:02*
%MOMM*%
%LPD*%
G01*
G04 APERTURE LIST*
%ADD10C,0.150000*%
%ADD11C,0.300000*%
%ADD12C,0.120000*%
%ADD13C,0.750000*%
G04 APERTURE END LIST*
D10*
X61233333Y-67857142D02*
X61185714Y-67904761D01*
X61042857Y-67952380D01*
X60947619Y-67952380D01*
X60804761Y-67904761D01*
X60709523Y-67809523D01*
X60661904Y-67714285D01*
X60614285Y-67523809D01*
X60614285Y-67380952D01*
X60661904Y-67190476D01*
X60709523Y-67095238D01*
X60804761Y-67000000D01*
X60947619Y-66952380D01*
X61042857Y-66952380D01*
X61185714Y-67000000D01*
X61233333Y-67047619D01*
X61661904Y-67952380D02*
X61661904Y-66952380D01*
X61661904Y-67428571D02*
X62233333Y-67428571D01*
X62233333Y-67952380D02*
X62233333Y-66952380D01*
X62614285Y-66952380D02*
X63233333Y-66952380D01*
X62900000Y-67333333D01*
X63042857Y-67333333D01*
X63138095Y-67380952D01*
X63185714Y-67428571D01*
X63233333Y-67523809D01*
X63233333Y-67761904D01*
X63185714Y-67857142D01*
X63138095Y-67904761D01*
X63042857Y-67952380D01*
X62757142Y-67952380D01*
X62661904Y-67904761D01*
X62614285Y-67857142D01*
X64090476Y-67285714D02*
X64090476Y-67952380D01*
X63852380Y-66904761D02*
X63614285Y-67619047D01*
X64233333Y-67619047D01*
X64757142Y-67380952D02*
X64661904Y-67333333D01*
X64614285Y-67285714D01*
X64566666Y-67190476D01*
X64566666Y-67142857D01*
X64614285Y-67047619D01*
X64661904Y-67000000D01*
X64757142Y-66952380D01*
X64947619Y-66952380D01*
X65042857Y-67000000D01*
X65090476Y-67047619D01*
X65138095Y-67142857D01*
X65138095Y-67190476D01*
X65090476Y-67285714D01*
X65042857Y-67333333D01*
X64947619Y-67380952D01*
X64757142Y-67380952D01*
X64661904Y-67428571D01*
X64614285Y-67476190D01*
X64566666Y-67571428D01*
X64566666Y-67761904D01*
X64614285Y-67857142D01*
X64661904Y-67904761D01*
X64757142Y-67952380D01*
X64947619Y-67952380D01*
X65042857Y-67904761D01*
X65090476Y-67857142D01*
X65138095Y-67761904D01*
X65138095Y-67571428D01*
X65090476Y-67476190D01*
X65042857Y-67428571D01*
X64947619Y-67380952D01*
X66233333Y-68047619D02*
X66138095Y-68000000D01*
X66042857Y-67904761D01*
X65900000Y-67761904D01*
X65804761Y-67714285D01*
X65709523Y-67714285D01*
X65757142Y-67952380D02*
X65661904Y-67904761D01*
X65566666Y-67809523D01*
X65519047Y-67619047D01*
X65519047Y-67285714D01*
X65566666Y-67095238D01*
X65661904Y-67000000D01*
X65757142Y-66952380D01*
X65947619Y-66952380D01*
X66042857Y-67000000D01*
X66138095Y-67095238D01*
X66185714Y-67285714D01*
X66185714Y-67619047D01*
X66138095Y-67809523D01*
X66042857Y-67904761D01*
X65947619Y-67952380D01*
X65757142Y-67952380D01*
X73680952Y-95366666D02*
X74157142Y-95366666D01*
X73585714Y-95652380D02*
X73919047Y-94652380D01*
X74252380Y-95652380D01*
X75157142Y-95557142D02*
X75109523Y-95604761D01*
X74966666Y-95652380D01*
X74871428Y-95652380D01*
X74728571Y-95604761D01*
X74633333Y-95509523D01*
X74585714Y-95414285D01*
X74538095Y-95223809D01*
X74538095Y-95080952D01*
X74585714Y-94890476D01*
X74633333Y-94795238D01*
X74728571Y-94700000D01*
X74871428Y-94652380D01*
X74966666Y-94652380D01*
X75109523Y-94700000D01*
X75157142Y-94747619D01*
X75442857Y-94652380D02*
X76014285Y-94652380D01*
X75728571Y-95652380D02*
X75728571Y-94652380D01*
X84523809Y-94752380D02*
X85142857Y-94752380D01*
X84809523Y-95133333D01*
X84952380Y-95133333D01*
X85047619Y-95180952D01*
X85095238Y-95228571D01*
X85142857Y-95323809D01*
X85142857Y-95561904D01*
X85095238Y-95657142D01*
X85047619Y-95704761D01*
X84952380Y-95752380D01*
X84666666Y-95752380D01*
X84571428Y-95704761D01*
X84523809Y-95657142D01*
X85571428Y-95657142D02*
X85619047Y-95704761D01*
X85571428Y-95752380D01*
X85523809Y-95704761D01*
X85571428Y-95657142D01*
X85571428Y-95752380D01*
X85952380Y-94752380D02*
X86571428Y-94752380D01*
X86238095Y-95133333D01*
X86380952Y-95133333D01*
X86476190Y-95180952D01*
X86523809Y-95228571D01*
X86571428Y-95323809D01*
X86571428Y-95561904D01*
X86523809Y-95657142D01*
X86476190Y-95704761D01*
X86380952Y-95752380D01*
X86095238Y-95752380D01*
X86000000Y-95704761D01*
X85952380Y-95657142D01*
X86857142Y-94752380D02*
X87190476Y-95752380D01*
X87523809Y-94752380D01*
X136152380Y-84371428D02*
X136961904Y-84371428D01*
X137057142Y-84323809D01*
X137104761Y-84276190D01*
X137152380Y-84180952D01*
X137152380Y-83990476D01*
X137104761Y-83895238D01*
X137057142Y-83847619D01*
X136961904Y-83800000D01*
X136152380Y-83800000D01*
X136866666Y-83371428D02*
X136866666Y-82895238D01*
X137152380Y-83466666D02*
X136152380Y-83133333D01*
X137152380Y-82800000D01*
X137152380Y-81895238D02*
X136676190Y-82228571D01*
X137152380Y-82466666D02*
X136152380Y-82466666D01*
X136152380Y-82085714D01*
X136200000Y-81990476D01*
X136247619Y-81942857D01*
X136342857Y-81895238D01*
X136485714Y-81895238D01*
X136580952Y-81942857D01*
X136628571Y-81990476D01*
X136676190Y-82085714D01*
X136676190Y-82466666D01*
X136152380Y-81609523D02*
X136152380Y-81038095D01*
X137152380Y-81323809D02*
X136152380Y-81323809D01*
X136152380Y-80800000D02*
X136152380Y-80180952D01*
X136533333Y-80514285D01*
X136533333Y-80371428D01*
X136580952Y-80276190D01*
X136628571Y-80228571D01*
X136723809Y-80180952D01*
X136961904Y-80180952D01*
X137057142Y-80228571D01*
X137104761Y-80276190D01*
X137152380Y-80371428D01*
X137152380Y-80657142D01*
X137104761Y-80752380D01*
X137057142Y-80800000D01*
X137908095Y-43392380D02*
X138479523Y-43392380D01*
X138193809Y-44392380D02*
X138193809Y-43392380D01*
X138717619Y-43392380D02*
X139384285Y-44392380D01*
X139384285Y-43392380D02*
X138717619Y-44392380D01*
X138713333Y-41852380D02*
X138380000Y-41376190D01*
X138141904Y-41852380D02*
X138141904Y-40852380D01*
X138522857Y-40852380D01*
X138618095Y-40900000D01*
X138665714Y-40947619D01*
X138713333Y-41042857D01*
X138713333Y-41185714D01*
X138665714Y-41280952D01*
X138618095Y-41328571D01*
X138522857Y-41376190D01*
X138141904Y-41376190D01*
X139046666Y-40852380D02*
X139713333Y-41852380D01*
X139713333Y-40852380D02*
X139046666Y-41852380D01*
X136052380Y-44771428D02*
X136861904Y-44771428D01*
X136957142Y-44723809D01*
X137004761Y-44676190D01*
X137052380Y-44580952D01*
X137052380Y-44390476D01*
X137004761Y-44295238D01*
X136957142Y-44247619D01*
X136861904Y-44200000D01*
X136052380Y-44200000D01*
X136766666Y-43771428D02*
X136766666Y-43295238D01*
X137052380Y-43866666D02*
X136052380Y-43533333D01*
X137052380Y-43200000D01*
X137052380Y-42295238D02*
X136576190Y-42628571D01*
X137052380Y-42866666D02*
X136052380Y-42866666D01*
X136052380Y-42485714D01*
X136100000Y-42390476D01*
X136147619Y-42342857D01*
X136242857Y-42295238D01*
X136385714Y-42295238D01*
X136480952Y-42342857D01*
X136528571Y-42390476D01*
X136576190Y-42485714D01*
X136576190Y-42866666D01*
X136052380Y-42009523D02*
X136052380Y-41438095D01*
X137052380Y-41723809D02*
X136052380Y-41723809D01*
X136052380Y-41200000D02*
X136052380Y-40533333D01*
X137052380Y-40961904D01*
X137248095Y-46130000D02*
X137152857Y-46082380D01*
X137010000Y-46082380D01*
X136867142Y-46130000D01*
X136771904Y-46225238D01*
X136724285Y-46320476D01*
X136676666Y-46510952D01*
X136676666Y-46653809D01*
X136724285Y-46844285D01*
X136771904Y-46939523D01*
X136867142Y-47034761D01*
X137010000Y-47082380D01*
X137105238Y-47082380D01*
X137248095Y-47034761D01*
X137295714Y-46987142D01*
X137295714Y-46653809D01*
X137105238Y-46653809D01*
X137724285Y-47082380D02*
X137724285Y-46082380D01*
X138295714Y-47082380D01*
X138295714Y-46082380D01*
X138771904Y-47082380D02*
X138771904Y-46082380D01*
X139010000Y-46082380D01*
X139152857Y-46130000D01*
X139248095Y-46225238D01*
X139295714Y-46320476D01*
X139343333Y-46510952D01*
X139343333Y-46653809D01*
X139295714Y-46844285D01*
X139248095Y-46939523D01*
X139152857Y-47034761D01*
X139010000Y-47082380D01*
X138771904Y-47082380D01*
X137508095Y-53292380D02*
X138079523Y-53292380D01*
X137793809Y-54292380D02*
X137793809Y-53292380D01*
X138317619Y-53292380D02*
X138984285Y-54292380D01*
X138984285Y-53292380D02*
X138317619Y-54292380D01*
X135652380Y-54671428D02*
X136461904Y-54671428D01*
X136557142Y-54623809D01*
X136604761Y-54576190D01*
X136652380Y-54480952D01*
X136652380Y-54290476D01*
X136604761Y-54195238D01*
X136557142Y-54147619D01*
X136461904Y-54100000D01*
X135652380Y-54100000D01*
X136366666Y-53671428D02*
X136366666Y-53195238D01*
X136652380Y-53766666D02*
X135652380Y-53433333D01*
X136652380Y-53100000D01*
X136652380Y-52195238D02*
X136176190Y-52528571D01*
X136652380Y-52766666D02*
X135652380Y-52766666D01*
X135652380Y-52385714D01*
X135700000Y-52290476D01*
X135747619Y-52242857D01*
X135842857Y-52195238D01*
X135985714Y-52195238D01*
X136080952Y-52242857D01*
X136128571Y-52290476D01*
X136176190Y-52385714D01*
X136176190Y-52766666D01*
X135652380Y-51909523D02*
X135652380Y-51338095D01*
X136652380Y-51623809D02*
X135652380Y-51623809D01*
X135652380Y-50576190D02*
X135652380Y-50766666D01*
X135700000Y-50861904D01*
X135747619Y-50909523D01*
X135890476Y-51004761D01*
X136080952Y-51052380D01*
X136461904Y-51052380D01*
X136557142Y-51004761D01*
X136604761Y-50957142D01*
X136652380Y-50861904D01*
X136652380Y-50671428D01*
X136604761Y-50576190D01*
X136557142Y-50528571D01*
X136461904Y-50480952D01*
X136223809Y-50480952D01*
X136128571Y-50528571D01*
X136080952Y-50576190D01*
X136033333Y-50671428D01*
X136033333Y-50861904D01*
X136080952Y-50957142D01*
X136128571Y-51004761D01*
X136223809Y-51052380D01*
X138313333Y-51752380D02*
X137980000Y-51276190D01*
X137741904Y-51752380D02*
X137741904Y-50752380D01*
X138122857Y-50752380D01*
X138218095Y-50800000D01*
X138265714Y-50847619D01*
X138313333Y-50942857D01*
X138313333Y-51085714D01*
X138265714Y-51180952D01*
X138218095Y-51228571D01*
X138122857Y-51276190D01*
X137741904Y-51276190D01*
X138646666Y-50752380D02*
X139313333Y-51752380D01*
X139313333Y-50752380D02*
X138646666Y-51752380D01*
X136848095Y-56030000D02*
X136752857Y-55982380D01*
X136610000Y-55982380D01*
X136467142Y-56030000D01*
X136371904Y-56125238D01*
X136324285Y-56220476D01*
X136276666Y-56410952D01*
X136276666Y-56553809D01*
X136324285Y-56744285D01*
X136371904Y-56839523D01*
X136467142Y-56934761D01*
X136610000Y-56982380D01*
X136705238Y-56982380D01*
X136848095Y-56934761D01*
X136895714Y-56887142D01*
X136895714Y-56553809D01*
X136705238Y-56553809D01*
X137324285Y-56982380D02*
X137324285Y-55982380D01*
X137895714Y-56982380D01*
X137895714Y-55982380D01*
X138371904Y-56982380D02*
X138371904Y-55982380D01*
X138610000Y-55982380D01*
X138752857Y-56030000D01*
X138848095Y-56125238D01*
X138895714Y-56220476D01*
X138943333Y-56410952D01*
X138943333Y-56553809D01*
X138895714Y-56744285D01*
X138848095Y-56839523D01*
X138752857Y-56934761D01*
X138610000Y-56982380D01*
X138371904Y-56982380D01*
X136748095Y-66030000D02*
X136652857Y-65982380D01*
X136510000Y-65982380D01*
X136367142Y-66030000D01*
X136271904Y-66125238D01*
X136224285Y-66220476D01*
X136176666Y-66410952D01*
X136176666Y-66553809D01*
X136224285Y-66744285D01*
X136271904Y-66839523D01*
X136367142Y-66934761D01*
X136510000Y-66982380D01*
X136605238Y-66982380D01*
X136748095Y-66934761D01*
X136795714Y-66887142D01*
X136795714Y-66553809D01*
X136605238Y-66553809D01*
X137224285Y-66982380D02*
X137224285Y-65982380D01*
X137795714Y-66982380D01*
X137795714Y-65982380D01*
X138271904Y-66982380D02*
X138271904Y-65982380D01*
X138510000Y-65982380D01*
X138652857Y-66030000D01*
X138748095Y-66125238D01*
X138795714Y-66220476D01*
X138843333Y-66410952D01*
X138843333Y-66553809D01*
X138795714Y-66744285D01*
X138748095Y-66839523D01*
X138652857Y-66934761D01*
X138510000Y-66982380D01*
X138271904Y-66982380D01*
X135552380Y-64671428D02*
X136361904Y-64671428D01*
X136457142Y-64623809D01*
X136504761Y-64576190D01*
X136552380Y-64480952D01*
X136552380Y-64290476D01*
X136504761Y-64195238D01*
X136457142Y-64147619D01*
X136361904Y-64100000D01*
X135552380Y-64100000D01*
X136266666Y-63671428D02*
X136266666Y-63195238D01*
X136552380Y-63766666D02*
X135552380Y-63433333D01*
X136552380Y-63100000D01*
X136552380Y-62195238D02*
X136076190Y-62528571D01*
X136552380Y-62766666D02*
X135552380Y-62766666D01*
X135552380Y-62385714D01*
X135600000Y-62290476D01*
X135647619Y-62242857D01*
X135742857Y-62195238D01*
X135885714Y-62195238D01*
X135980952Y-62242857D01*
X136028571Y-62290476D01*
X136076190Y-62385714D01*
X136076190Y-62766666D01*
X135552380Y-61909523D02*
X135552380Y-61338095D01*
X136552380Y-61623809D02*
X135552380Y-61623809D01*
X135552380Y-60528571D02*
X135552380Y-61004761D01*
X136028571Y-61052380D01*
X135980952Y-61004761D01*
X135933333Y-60909523D01*
X135933333Y-60671428D01*
X135980952Y-60576190D01*
X136028571Y-60528571D01*
X136123809Y-60480952D01*
X136361904Y-60480952D01*
X136457142Y-60528571D01*
X136504761Y-60576190D01*
X136552380Y-60671428D01*
X136552380Y-60909523D01*
X136504761Y-61004761D01*
X136457142Y-61052380D01*
X138213333Y-61752380D02*
X137880000Y-61276190D01*
X137641904Y-61752380D02*
X137641904Y-60752380D01*
X138022857Y-60752380D01*
X138118095Y-60800000D01*
X138165714Y-60847619D01*
X138213333Y-60942857D01*
X138213333Y-61085714D01*
X138165714Y-61180952D01*
X138118095Y-61228571D01*
X138022857Y-61276190D01*
X137641904Y-61276190D01*
X138546666Y-60752380D02*
X139213333Y-61752380D01*
X139213333Y-60752380D02*
X138546666Y-61752380D01*
X137408095Y-63292380D02*
X137979523Y-63292380D01*
X137693809Y-64292380D02*
X137693809Y-63292380D01*
X138217619Y-63292380D02*
X138884285Y-64292380D01*
X138884285Y-63292380D02*
X138217619Y-64292380D01*
X135652380Y-74371428D02*
X136461904Y-74371428D01*
X136557142Y-74323809D01*
X136604761Y-74276190D01*
X136652380Y-74180952D01*
X136652380Y-73990476D01*
X136604761Y-73895238D01*
X136557142Y-73847619D01*
X136461904Y-73800000D01*
X135652380Y-73800000D01*
X136366666Y-73371428D02*
X136366666Y-72895238D01*
X136652380Y-73466666D02*
X135652380Y-73133333D01*
X136652380Y-72800000D01*
X136652380Y-71895238D02*
X136176190Y-72228571D01*
X136652380Y-72466666D02*
X135652380Y-72466666D01*
X135652380Y-72085714D01*
X135700000Y-71990476D01*
X135747619Y-71942857D01*
X135842857Y-71895238D01*
X135985714Y-71895238D01*
X136080952Y-71942857D01*
X136128571Y-71990476D01*
X136176190Y-72085714D01*
X136176190Y-72466666D01*
X135652380Y-71609523D02*
X135652380Y-71038095D01*
X136652380Y-71323809D02*
X135652380Y-71323809D01*
X135985714Y-70276190D02*
X136652380Y-70276190D01*
X135604761Y-70514285D02*
X136319047Y-70752380D01*
X136319047Y-70133333D01*
X138313333Y-71452380D02*
X137980000Y-70976190D01*
X137741904Y-71452380D02*
X137741904Y-70452380D01*
X138122857Y-70452380D01*
X138218095Y-70500000D01*
X138265714Y-70547619D01*
X138313333Y-70642857D01*
X138313333Y-70785714D01*
X138265714Y-70880952D01*
X138218095Y-70928571D01*
X138122857Y-70976190D01*
X137741904Y-70976190D01*
X138646666Y-70452380D02*
X139313333Y-71452380D01*
X139313333Y-70452380D02*
X138646666Y-71452380D01*
X137508095Y-72992380D02*
X138079523Y-72992380D01*
X137793809Y-73992380D02*
X137793809Y-72992380D01*
X138317619Y-72992380D02*
X138984285Y-73992380D01*
X138984285Y-72992380D02*
X138317619Y-73992380D01*
X136848095Y-75730000D02*
X136752857Y-75682380D01*
X136610000Y-75682380D01*
X136467142Y-75730000D01*
X136371904Y-75825238D01*
X136324285Y-75920476D01*
X136276666Y-76110952D01*
X136276666Y-76253809D01*
X136324285Y-76444285D01*
X136371904Y-76539523D01*
X136467142Y-76634761D01*
X136610000Y-76682380D01*
X136705238Y-76682380D01*
X136848095Y-76634761D01*
X136895714Y-76587142D01*
X136895714Y-76253809D01*
X136705238Y-76253809D01*
X137324285Y-76682380D02*
X137324285Y-75682380D01*
X137895714Y-76682380D01*
X137895714Y-75682380D01*
X138371904Y-76682380D02*
X138371904Y-75682380D01*
X138610000Y-75682380D01*
X138752857Y-75730000D01*
X138848095Y-75825238D01*
X138895714Y-75920476D01*
X138943333Y-76110952D01*
X138943333Y-76253809D01*
X138895714Y-76444285D01*
X138848095Y-76539523D01*
X138752857Y-76634761D01*
X138610000Y-76682380D01*
X138371904Y-76682380D01*
X85209523Y-114252380D02*
X85828571Y-114252380D01*
X85495238Y-114633333D01*
X85638095Y-114633333D01*
X85733333Y-114680952D01*
X85780952Y-114728571D01*
X85828571Y-114823809D01*
X85828571Y-115061904D01*
X85780952Y-115157142D01*
X85733333Y-115204761D01*
X85638095Y-115252380D01*
X85352380Y-115252380D01*
X85257142Y-115204761D01*
X85209523Y-115157142D01*
X86161904Y-114585714D02*
X86400000Y-115252380D01*
X86638095Y-114585714D01*
X86923809Y-114252380D02*
X87542857Y-114252380D01*
X87209523Y-114633333D01*
X87352380Y-114633333D01*
X87447619Y-114680952D01*
X87495238Y-114728571D01*
X87542857Y-114823809D01*
X87542857Y-115061904D01*
X87495238Y-115157142D01*
X87447619Y-115204761D01*
X87352380Y-115252380D01*
X87066666Y-115252380D01*
X86971428Y-115204761D01*
X86923809Y-115157142D01*
X118547619Y-59452380D02*
X119547619Y-59452380D01*
X119547619Y-59833333D01*
X119500000Y-59928571D01*
X119452380Y-59976190D01*
X119357142Y-60023809D01*
X119214285Y-60023809D01*
X119119047Y-59976190D01*
X119071428Y-59928571D01*
X119023809Y-59833333D01*
X119023809Y-59452380D01*
X118547619Y-60452380D02*
X119214285Y-60452380D01*
X119547619Y-60452380D02*
X119500000Y-60404761D01*
X119452380Y-60452380D01*
X119500000Y-60500000D01*
X119547619Y-60452380D01*
X119452380Y-60452380D01*
X119595238Y-61642857D02*
X118309523Y-60785714D01*
X118547619Y-62452380D02*
X118547619Y-61976190D01*
X119547619Y-61976190D01*
X118595238Y-63166666D02*
X118547619Y-63071428D01*
X118547619Y-62880952D01*
X118595238Y-62785714D01*
X118690476Y-62738095D01*
X119071428Y-62738095D01*
X119166666Y-62785714D01*
X119214285Y-62880952D01*
X119214285Y-63071428D01*
X119166666Y-63166666D01*
X119071428Y-63214285D01*
X118976190Y-63214285D01*
X118880952Y-62738095D01*
X118547619Y-63642857D02*
X119547619Y-63642857D01*
X119547619Y-64023809D01*
X119500000Y-64119047D01*
X119452380Y-64166666D01*
X119357142Y-64214285D01*
X119214285Y-64214285D01*
X119119047Y-64166666D01*
X119071428Y-64119047D01*
X119023809Y-64023809D01*
X119023809Y-63642857D01*
X118547619Y-64785714D02*
X118595238Y-64690476D01*
X118642857Y-64642857D01*
X118738095Y-64595238D01*
X119023809Y-64595238D01*
X119119047Y-64642857D01*
X119166666Y-64690476D01*
X119214285Y-64785714D01*
X119214285Y-64928571D01*
X119166666Y-65023809D01*
X119119047Y-65071428D01*
X119023809Y-65119047D01*
X118738095Y-65119047D01*
X118642857Y-65071428D01*
X118595238Y-65023809D01*
X118547619Y-64928571D01*
X118547619Y-64785714D01*
X119214285Y-65404761D02*
X119214285Y-65785714D01*
X119547619Y-65547619D02*
X118690476Y-65547619D01*
X118595238Y-65595238D01*
X118547619Y-65690476D01*
X118547619Y-65785714D01*
X118547619Y-66547619D02*
X119071428Y-66547619D01*
X119166666Y-66500000D01*
X119214285Y-66404761D01*
X119214285Y-66214285D01*
X119166666Y-66119047D01*
X118595238Y-66547619D02*
X118547619Y-66452380D01*
X118547619Y-66214285D01*
X118595238Y-66119047D01*
X118690476Y-66071428D01*
X118785714Y-66071428D01*
X118880952Y-66119047D01*
X118928571Y-66214285D01*
X118928571Y-66452380D01*
X118976190Y-66547619D01*
X119214285Y-66880952D02*
X119214285Y-67261904D01*
X119547619Y-67023809D02*
X118690476Y-67023809D01*
X118595238Y-67071428D01*
X118547619Y-67166666D01*
X118547619Y-67261904D01*
X118547619Y-67738095D02*
X118595238Y-67642857D01*
X118642857Y-67595238D01*
X118738095Y-67547619D01*
X119023809Y-67547619D01*
X119119047Y-67595238D01*
X119166666Y-67642857D01*
X119214285Y-67738095D01*
X119214285Y-67880952D01*
X119166666Y-67976190D01*
X119119047Y-68023809D01*
X119023809Y-68071428D01*
X118738095Y-68071428D01*
X118642857Y-68023809D01*
X118595238Y-67976190D01*
X118547619Y-67880952D01*
X118547619Y-67738095D01*
X119595238Y-69214285D02*
X118309523Y-68357142D01*
X118547619Y-70023809D02*
X118547619Y-69547619D01*
X119547619Y-69547619D01*
X118547619Y-70785714D02*
X119071428Y-70785714D01*
X119166666Y-70738095D01*
X119214285Y-70642857D01*
X119214285Y-70452380D01*
X119166666Y-70357142D01*
X118595238Y-70785714D02*
X118547619Y-70690476D01*
X118547619Y-70452380D01*
X118595238Y-70357142D01*
X118690476Y-70309523D01*
X118785714Y-70309523D01*
X118880952Y-70357142D01*
X118928571Y-70452380D01*
X118928571Y-70690476D01*
X118976190Y-70785714D01*
X119071428Y-71595238D02*
X119071428Y-71261904D01*
X118547619Y-71261904D02*
X119547619Y-71261904D01*
X119547619Y-71738095D01*
X118547619Y-72119047D02*
X119214285Y-72119047D01*
X119023809Y-72119047D02*
X119119047Y-72166666D01*
X119166666Y-72214285D01*
X119214285Y-72309523D01*
X119214285Y-72404761D01*
X118547619Y-72738095D02*
X119214285Y-72738095D01*
X119547619Y-72738095D02*
X119500000Y-72690476D01*
X119452380Y-72738095D01*
X119500000Y-72785714D01*
X119547619Y-72738095D01*
X119452380Y-72738095D01*
X119214285Y-73071428D02*
X119214285Y-73452380D01*
X119547619Y-73214285D02*
X118690476Y-73214285D01*
X118595238Y-73261904D01*
X118547619Y-73357142D01*
X118547619Y-73452380D01*
X118595238Y-74166666D02*
X118547619Y-74071428D01*
X118547619Y-73880952D01*
X118595238Y-73785714D01*
X118690476Y-73738095D01*
X119071428Y-73738095D01*
X119166666Y-73785714D01*
X119214285Y-73880952D01*
X119214285Y-74071428D01*
X119166666Y-74166666D01*
X119071428Y-74214285D01*
X118976190Y-74214285D01*
X118880952Y-73738095D01*
X118547619Y-75404761D02*
X119547619Y-75404761D01*
X118833333Y-75738095D01*
X119547619Y-76071428D01*
X118547619Y-76071428D01*
X118547619Y-76690476D02*
X118595238Y-76595238D01*
X118642857Y-76547619D01*
X118738095Y-76500000D01*
X119023809Y-76500000D01*
X119119047Y-76547619D01*
X119166666Y-76595238D01*
X119214285Y-76690476D01*
X119214285Y-76833333D01*
X119166666Y-76928571D01*
X119119047Y-76976190D01*
X119023809Y-77023809D01*
X118738095Y-77023809D01*
X118642857Y-76976190D01*
X118595238Y-76928571D01*
X118547619Y-76833333D01*
X118547619Y-76690476D01*
X119214285Y-77880952D02*
X118547619Y-77880952D01*
X119214285Y-77452380D02*
X118690476Y-77452380D01*
X118595238Y-77500000D01*
X118547619Y-77595238D01*
X118547619Y-77738095D01*
X118595238Y-77833333D01*
X118642857Y-77880952D01*
X119214285Y-78357142D02*
X118547619Y-78357142D01*
X119119047Y-78357142D02*
X119166666Y-78404761D01*
X119214285Y-78500000D01*
X119214285Y-78642857D01*
X119166666Y-78738095D01*
X119071428Y-78785714D01*
X118547619Y-78785714D01*
X119214285Y-79119047D02*
X119214285Y-79500000D01*
X119547619Y-79261904D02*
X118690476Y-79261904D01*
X118595238Y-79309523D01*
X118547619Y-79404761D01*
X118547619Y-79500000D01*
X118547619Y-79833333D02*
X119214285Y-79833333D01*
X119547619Y-79833333D02*
X119500000Y-79785714D01*
X119452380Y-79833333D01*
X119500000Y-79880952D01*
X119547619Y-79833333D01*
X119452380Y-79833333D01*
X119214285Y-80309523D02*
X118547619Y-80309523D01*
X119119047Y-80309523D02*
X119166666Y-80357142D01*
X119214285Y-80452380D01*
X119214285Y-80595238D01*
X119166666Y-80690476D01*
X119071428Y-80738095D01*
X118547619Y-80738095D01*
X119214285Y-81642857D02*
X118404761Y-81642857D01*
X118309523Y-81595238D01*
X118261904Y-81547619D01*
X118214285Y-81452380D01*
X118214285Y-81309523D01*
X118261904Y-81214285D01*
X118595238Y-81642857D02*
X118547619Y-81547619D01*
X118547619Y-81357142D01*
X118595238Y-81261904D01*
X118642857Y-81214285D01*
X118738095Y-81166666D01*
X119023809Y-81166666D01*
X119119047Y-81214285D01*
X119166666Y-81261904D01*
X119214285Y-81357142D01*
X119214285Y-81547619D01*
X119166666Y-81642857D01*
X118547619Y-82880952D02*
X119547619Y-82880952D01*
X119071428Y-82880952D02*
X119071428Y-83452380D01*
X118547619Y-83452380D02*
X119547619Y-83452380D01*
X118547619Y-84071428D02*
X118595238Y-83976190D01*
X118642857Y-83928571D01*
X118738095Y-83880952D01*
X119023809Y-83880952D01*
X119119047Y-83928571D01*
X119166666Y-83976190D01*
X119214285Y-84071428D01*
X119214285Y-84214285D01*
X119166666Y-84309523D01*
X119119047Y-84357142D01*
X119023809Y-84404761D01*
X118738095Y-84404761D01*
X118642857Y-84357142D01*
X118595238Y-84309523D01*
X118547619Y-84214285D01*
X118547619Y-84071428D01*
X118547619Y-84976190D02*
X118595238Y-84880952D01*
X118690476Y-84833333D01*
X119547619Y-84833333D01*
X118595238Y-85738095D02*
X118547619Y-85642857D01*
X118547619Y-85452380D01*
X118595238Y-85357142D01*
X118690476Y-85309523D01*
X119071428Y-85309523D01*
X119166666Y-85357142D01*
X119214285Y-85452380D01*
X119214285Y-85642857D01*
X119166666Y-85738095D01*
X119071428Y-85785714D01*
X118976190Y-85785714D01*
X118880952Y-85309523D01*
X118595238Y-86166666D02*
X118547619Y-86261904D01*
X118547619Y-86452380D01*
X118595238Y-86547619D01*
X118690476Y-86595238D01*
X118738095Y-86595238D01*
X118833333Y-86547619D01*
X118880952Y-86452380D01*
X118880952Y-86309523D01*
X118928571Y-86214285D01*
X119023809Y-86166666D01*
X119071428Y-86166666D01*
X119166666Y-86214285D01*
X119214285Y-86309523D01*
X119214285Y-86452380D01*
X119166666Y-86547619D01*
D11*
X60000000Y-50000000D02*
X118000000Y-50000000D01*
X118000000Y-99000000D02*
X118000000Y-50000000D01*
X118000000Y-99000000D02*
X60000000Y-99000000D01*
X60000000Y-50000000D02*
X60000000Y-99000000D01*
D10*
X131452380Y-104285714D02*
X130452380Y-104285714D01*
X130452380Y-104047619D01*
X130500000Y-103904761D01*
X130595238Y-103809523D01*
X130690476Y-103761904D01*
X130880952Y-103714285D01*
X131023809Y-103714285D01*
X131214285Y-103761904D01*
X131309523Y-103809523D01*
X131404761Y-103904761D01*
X131452380Y-104047619D01*
X131452380Y-104285714D01*
X131404761Y-102904761D02*
X131452380Y-103000000D01*
X131452380Y-103190476D01*
X131404761Y-103285714D01*
X131309523Y-103333333D01*
X130928571Y-103333333D01*
X130833333Y-103285714D01*
X130785714Y-103190476D01*
X130785714Y-103000000D01*
X130833333Y-102904761D01*
X130928571Y-102857142D01*
X131023809Y-102857142D01*
X131119047Y-103333333D01*
X131404761Y-102476190D02*
X131452380Y-102380952D01*
X131452380Y-102190476D01*
X131404761Y-102095238D01*
X131309523Y-102047619D01*
X131261904Y-102047619D01*
X131166666Y-102095238D01*
X131119047Y-102190476D01*
X131119047Y-102333333D01*
X131071428Y-102428571D01*
X130976190Y-102476190D01*
X130928571Y-102476190D01*
X130833333Y-102428571D01*
X130785714Y-102333333D01*
X130785714Y-102190476D01*
X130833333Y-102095238D01*
X131452380Y-101619047D02*
X130785714Y-101619047D01*
X130452380Y-101619047D02*
X130500000Y-101666666D01*
X130547619Y-101619047D01*
X130500000Y-101571428D01*
X130452380Y-101619047D01*
X130547619Y-101619047D01*
X130785714Y-100714285D02*
X131595238Y-100714285D01*
X131690476Y-100761904D01*
X131738095Y-100809523D01*
X131785714Y-100904761D01*
X131785714Y-101047619D01*
X131738095Y-101142857D01*
X131404761Y-100714285D02*
X131452380Y-100809523D01*
X131452380Y-101000000D01*
X131404761Y-101095238D01*
X131357142Y-101142857D01*
X131261904Y-101190476D01*
X130976190Y-101190476D01*
X130880952Y-101142857D01*
X130833333Y-101095238D01*
X130785714Y-101000000D01*
X130785714Y-100809523D01*
X130833333Y-100714285D01*
X130785714Y-100238095D02*
X131452380Y-100238095D01*
X130880952Y-100238095D02*
X130833333Y-100190476D01*
X130785714Y-100095238D01*
X130785714Y-99952380D01*
X130833333Y-99857142D01*
X130928571Y-99809523D01*
X131452380Y-99809523D01*
X131404761Y-98952380D02*
X131452380Y-99047619D01*
X131452380Y-99238095D01*
X131404761Y-99333333D01*
X131309523Y-99380952D01*
X130928571Y-99380952D01*
X130833333Y-99333333D01*
X130785714Y-99238095D01*
X130785714Y-99047619D01*
X130833333Y-98952380D01*
X130928571Y-98904761D01*
X131023809Y-98904761D01*
X131119047Y-99380952D01*
X131452380Y-98047619D02*
X130452380Y-98047619D01*
X131404761Y-98047619D02*
X131452380Y-98142857D01*
X131452380Y-98333333D01*
X131404761Y-98428571D01*
X131357142Y-98476190D01*
X131261904Y-98523809D01*
X130976190Y-98523809D01*
X130880952Y-98476190D01*
X130833333Y-98428571D01*
X130785714Y-98333333D01*
X130785714Y-98142857D01*
X130833333Y-98047619D01*
X131452380Y-96809523D02*
X130452380Y-96809523D01*
X130833333Y-96809523D02*
X130785714Y-96714285D01*
X130785714Y-96523809D01*
X130833333Y-96428571D01*
X130880952Y-96380952D01*
X130976190Y-96333333D01*
X131261904Y-96333333D01*
X131357142Y-96380952D01*
X131404761Y-96428571D01*
X131452380Y-96523809D01*
X131452380Y-96714285D01*
X131404761Y-96809523D01*
X130785714Y-96000000D02*
X131452380Y-95761904D01*
X130785714Y-95523809D02*
X131452380Y-95761904D01*
X131690476Y-95857142D01*
X131738095Y-95904761D01*
X131785714Y-96000000D01*
X130976190Y-93761904D02*
X130928571Y-93809523D01*
X130880952Y-93904761D01*
X130880952Y-94000000D01*
X130928571Y-94095238D01*
X130976190Y-94142857D01*
X131071428Y-94190476D01*
X131166666Y-94190476D01*
X131261904Y-94142857D01*
X131309523Y-94095238D01*
X131357142Y-94000000D01*
X131357142Y-93904761D01*
X131309523Y-93809523D01*
X131261904Y-93761904D01*
X130880952Y-93761904D02*
X131261904Y-93761904D01*
X131309523Y-93714285D01*
X131309523Y-93666666D01*
X131261904Y-93571428D01*
X131166666Y-93523809D01*
X130928571Y-93523809D01*
X130785714Y-93619047D01*
X130690476Y-93761904D01*
X130642857Y-93952380D01*
X130690476Y-94142857D01*
X130785714Y-94285714D01*
X130928571Y-94380952D01*
X131119047Y-94428571D01*
X131309523Y-94380952D01*
X131452380Y-94285714D01*
X131547619Y-94142857D01*
X131595238Y-93952380D01*
X131547619Y-93761904D01*
X131452380Y-93619047D01*
X131404761Y-93142857D02*
X131452380Y-93000000D01*
X131452380Y-92761904D01*
X131404761Y-92666666D01*
X131357142Y-92619047D01*
X131261904Y-92571428D01*
X131166666Y-92571428D01*
X131071428Y-92619047D01*
X131023809Y-92666666D01*
X130976190Y-92761904D01*
X130928571Y-92952380D01*
X130880952Y-93047619D01*
X130833333Y-93095238D01*
X130738095Y-93142857D01*
X130642857Y-93142857D01*
X130547619Y-93095238D01*
X130500000Y-93047619D01*
X130452380Y-92952380D01*
X130452380Y-92714285D01*
X130500000Y-92571428D01*
X130785714Y-91714285D02*
X131452380Y-91714285D01*
X130785714Y-92142857D02*
X131309523Y-92142857D01*
X131404761Y-92095238D01*
X131452380Y-92000000D01*
X131452380Y-91857142D01*
X131404761Y-91761904D01*
X131357142Y-91714285D01*
X130785714Y-91238095D02*
X131785714Y-91238095D01*
X130833333Y-91238095D02*
X130785714Y-91142857D01*
X130785714Y-90952380D01*
X130833333Y-90857142D01*
X130880952Y-90809523D01*
X130976190Y-90761904D01*
X131261904Y-90761904D01*
X131357142Y-90809523D01*
X131404761Y-90857142D01*
X131452380Y-90952380D01*
X131452380Y-91142857D01*
X131404761Y-91238095D01*
X131404761Y-89952380D02*
X131452380Y-90047619D01*
X131452380Y-90238095D01*
X131404761Y-90333333D01*
X131309523Y-90380952D01*
X130928571Y-90380952D01*
X130833333Y-90333333D01*
X130785714Y-90238095D01*
X130785714Y-90047619D01*
X130833333Y-89952380D01*
X130928571Y-89904761D01*
X131023809Y-89904761D01*
X131119047Y-90380952D01*
X131452380Y-89476190D02*
X130785714Y-89476190D01*
X130976190Y-89476190D02*
X130880952Y-89428571D01*
X130833333Y-89380952D01*
X130785714Y-89285714D01*
X130785714Y-89190476D01*
X130785714Y-88857142D02*
X131452380Y-88857142D01*
X130880952Y-88857142D02*
X130833333Y-88809523D01*
X130785714Y-88714285D01*
X130785714Y-88571428D01*
X130833333Y-88476190D01*
X130928571Y-88428571D01*
X131452380Y-88428571D01*
X131452380Y-87523809D02*
X130928571Y-87523809D01*
X130833333Y-87571428D01*
X130785714Y-87666666D01*
X130785714Y-87857142D01*
X130833333Y-87952380D01*
X131404761Y-87523809D02*
X131452380Y-87619047D01*
X131452380Y-87857142D01*
X131404761Y-87952380D01*
X131309523Y-88000000D01*
X131214285Y-88000000D01*
X131119047Y-87952380D01*
X131071428Y-87857142D01*
X131071428Y-87619047D01*
X131023809Y-87523809D01*
X131452380Y-87000000D02*
X131452380Y-86809523D01*
X131404761Y-86714285D01*
X131357142Y-86666666D01*
X131214285Y-86571428D01*
X131023809Y-86523809D01*
X130642857Y-86523809D01*
X130547619Y-86571428D01*
X130500000Y-86619047D01*
X130452380Y-86714285D01*
X130452380Y-86904761D01*
X130500000Y-87000000D01*
X130547619Y-87047619D01*
X130642857Y-87095238D01*
X130880952Y-87095238D01*
X130976190Y-87047619D01*
X131023809Y-87000000D01*
X131071428Y-86904761D01*
X131071428Y-86714285D01*
X131023809Y-86619047D01*
X130976190Y-86571428D01*
X130880952Y-86523809D01*
X131452380Y-86047619D02*
X131452380Y-85857142D01*
X131404761Y-85761904D01*
X131357142Y-85714285D01*
X131214285Y-85619047D01*
X131023809Y-85571428D01*
X130642857Y-85571428D01*
X130547619Y-85619047D01*
X130500000Y-85666666D01*
X130452380Y-85761904D01*
X130452380Y-85952380D01*
X130500000Y-86047619D01*
X130547619Y-86095238D01*
X130642857Y-86142857D01*
X130880952Y-86142857D01*
X130976190Y-86095238D01*
X131023809Y-86047619D01*
X131071428Y-85952380D01*
X131071428Y-85761904D01*
X131023809Y-85666666D01*
X130976190Y-85619047D01*
X130880952Y-85571428D01*
X131452380Y-85095238D02*
X131452380Y-84904761D01*
X131404761Y-84809523D01*
X131357142Y-84761904D01*
X131214285Y-84666666D01*
X131023809Y-84619047D01*
X130642857Y-84619047D01*
X130547619Y-84666666D01*
X130500000Y-84714285D01*
X130452380Y-84809523D01*
X130452380Y-85000000D01*
X130500000Y-85095238D01*
X130547619Y-85142857D01*
X130642857Y-85190476D01*
X130880952Y-85190476D01*
X130976190Y-85142857D01*
X131023809Y-85095238D01*
X131071428Y-85000000D01*
X131071428Y-84809523D01*
X131023809Y-84714285D01*
X130976190Y-84666666D01*
X130880952Y-84619047D01*
X131452380Y-84142857D02*
X131452380Y-83952380D01*
X131404761Y-83857142D01*
X131357142Y-83809523D01*
X131214285Y-83714285D01*
X131023809Y-83666666D01*
X130642857Y-83666666D01*
X130547619Y-83714285D01*
X130500000Y-83761904D01*
X130452380Y-83857142D01*
X130452380Y-84047619D01*
X130500000Y-84142857D01*
X130547619Y-84190476D01*
X130642857Y-84238095D01*
X130880952Y-84238095D01*
X130976190Y-84190476D01*
X131023809Y-84142857D01*
X131071428Y-84047619D01*
X131071428Y-83857142D01*
X131023809Y-83761904D01*
X130976190Y-83714285D01*
X130880952Y-83666666D01*
X73401904Y-102612380D02*
X74020952Y-102612380D01*
X73687619Y-102993333D01*
X73830476Y-102993333D01*
X73925714Y-103040952D01*
X73973333Y-103088571D01*
X74020952Y-103183809D01*
X74020952Y-103421904D01*
X73973333Y-103517142D01*
X73925714Y-103564761D01*
X73830476Y-103612380D01*
X73544761Y-103612380D01*
X73449523Y-103564761D01*
X73401904Y-103517142D01*
X74449523Y-103517142D02*
X74497142Y-103564761D01*
X74449523Y-103612380D01*
X74401904Y-103564761D01*
X74449523Y-103517142D01*
X74449523Y-103612380D01*
X74830476Y-102612380D02*
X75449523Y-102612380D01*
X75116190Y-102993333D01*
X75259047Y-102993333D01*
X75354285Y-103040952D01*
X75401904Y-103088571D01*
X75449523Y-103183809D01*
X75449523Y-103421904D01*
X75401904Y-103517142D01*
X75354285Y-103564761D01*
X75259047Y-103612380D01*
X74973333Y-103612380D01*
X74878095Y-103564761D01*
X74830476Y-103517142D01*
X75782857Y-102945714D02*
X76020952Y-103612380D01*
X76259047Y-102945714D01*
X77878095Y-103612380D02*
X77401904Y-103612380D01*
X77401904Y-102612380D01*
X78211428Y-103612380D02*
X78211428Y-102612380D01*
X78449523Y-102612380D01*
X78592380Y-102660000D01*
X78687619Y-102755238D01*
X78735238Y-102850476D01*
X78782857Y-103040952D01*
X78782857Y-103183809D01*
X78735238Y-103374285D01*
X78687619Y-103469523D01*
X78592380Y-103564761D01*
X78449523Y-103612380D01*
X78211428Y-103612380D01*
X79401904Y-102612380D02*
X79592380Y-102612380D01*
X79687619Y-102660000D01*
X79782857Y-102755238D01*
X79830476Y-102945714D01*
X79830476Y-103279047D01*
X79782857Y-103469523D01*
X79687619Y-103564761D01*
X79592380Y-103612380D01*
X79401904Y-103612380D01*
X79306666Y-103564761D01*
X79211428Y-103469523D01*
X79163809Y-103279047D01*
X79163809Y-102945714D01*
X79211428Y-102755238D01*
X79306666Y-102660000D01*
X79401904Y-102612380D01*
D12*
X73020000Y-118020000D02*
X87990000Y-117990000D01*
X73050000Y-102000000D02*
X73020000Y-118020000D01*
X87990000Y-102000000D02*
X73050000Y-102000000D01*
X87990000Y-117990000D02*
X87990000Y-102000000D01*
D10*
X44578095Y-87972380D02*
X44578095Y-88781904D01*
X44625714Y-88877142D01*
X44673333Y-88924761D01*
X44768571Y-88972380D01*
X44959047Y-88972380D01*
X45054285Y-88924761D01*
X45101904Y-88877142D01*
X45149523Y-88781904D01*
X45149523Y-87972380D01*
X45578095Y-88924761D02*
X45720952Y-88972380D01*
X45959047Y-88972380D01*
X46054285Y-88924761D01*
X46101904Y-88877142D01*
X46149523Y-88781904D01*
X46149523Y-88686666D01*
X46101904Y-88591428D01*
X46054285Y-88543809D01*
X45959047Y-88496190D01*
X45768571Y-88448571D01*
X45673333Y-88400952D01*
X45625714Y-88353333D01*
X45578095Y-88258095D01*
X45578095Y-88162857D01*
X45625714Y-88067619D01*
X45673333Y-88020000D01*
X45768571Y-87972380D01*
X46006666Y-87972380D01*
X46149523Y-88020000D01*
X46911428Y-88448571D02*
X47054285Y-88496190D01*
X47101904Y-88543809D01*
X47149523Y-88639047D01*
X47149523Y-88781904D01*
X47101904Y-88877142D01*
X47054285Y-88924761D01*
X46959047Y-88972380D01*
X46578095Y-88972380D01*
X46578095Y-87972380D01*
X46911428Y-87972380D01*
X47006666Y-88020000D01*
X47054285Y-88067619D01*
X47101904Y-88162857D01*
X47101904Y-88258095D01*
X47054285Y-88353333D01*
X47006666Y-88400952D01*
X46911428Y-88448571D01*
X46578095Y-88448571D01*
X138783333Y-110982380D02*
X138450000Y-110506190D01*
X138211904Y-110982380D02*
X138211904Y-109982380D01*
X138592857Y-109982380D01*
X138688095Y-110030000D01*
X138735714Y-110077619D01*
X138783333Y-110172857D01*
X138783333Y-110315714D01*
X138735714Y-110410952D01*
X138688095Y-110458571D01*
X138592857Y-110506190D01*
X138211904Y-110506190D01*
X139116666Y-109982380D02*
X139783333Y-110982380D01*
X139783333Y-109982380D02*
X139116666Y-110982380D01*
X137978095Y-112522380D02*
X138549523Y-112522380D01*
X138263809Y-113522380D02*
X138263809Y-112522380D01*
X138787619Y-112522380D02*
X139454285Y-113522380D01*
X139454285Y-112522380D02*
X138787619Y-113522380D01*
X137318095Y-115260000D02*
X137222857Y-115212380D01*
X137080000Y-115212380D01*
X136937142Y-115260000D01*
X136841904Y-115355238D01*
X136794285Y-115450476D01*
X136746666Y-115640952D01*
X136746666Y-115783809D01*
X136794285Y-115974285D01*
X136841904Y-116069523D01*
X136937142Y-116164761D01*
X137080000Y-116212380D01*
X137175238Y-116212380D01*
X137318095Y-116164761D01*
X137365714Y-116117142D01*
X137365714Y-115783809D01*
X137175238Y-115783809D01*
X137794285Y-116212380D02*
X137794285Y-115212380D01*
X138365714Y-116212380D01*
X138365714Y-115212380D01*
X138841904Y-116212380D02*
X138841904Y-115212380D01*
X139080000Y-115212380D01*
X139222857Y-115260000D01*
X139318095Y-115355238D01*
X139365714Y-115450476D01*
X139413333Y-115640952D01*
X139413333Y-115783809D01*
X139365714Y-115974285D01*
X139318095Y-116069523D01*
X139222857Y-116164761D01*
X139080000Y-116212380D01*
X138841904Y-116212380D01*
X138633333Y-101192380D02*
X138300000Y-100716190D01*
X138061904Y-101192380D02*
X138061904Y-100192380D01*
X138442857Y-100192380D01*
X138538095Y-100240000D01*
X138585714Y-100287619D01*
X138633333Y-100382857D01*
X138633333Y-100525714D01*
X138585714Y-100620952D01*
X138538095Y-100668571D01*
X138442857Y-100716190D01*
X138061904Y-100716190D01*
X138966666Y-100192380D02*
X139633333Y-101192380D01*
X139633333Y-100192380D02*
X138966666Y-101192380D01*
X137828095Y-102732380D02*
X138399523Y-102732380D01*
X138113809Y-103732380D02*
X138113809Y-102732380D01*
X138637619Y-102732380D02*
X139304285Y-103732380D01*
X139304285Y-102732380D02*
X138637619Y-103732380D01*
X137168095Y-105470000D02*
X137072857Y-105422380D01*
X136930000Y-105422380D01*
X136787142Y-105470000D01*
X136691904Y-105565238D01*
X136644285Y-105660476D01*
X136596666Y-105850952D01*
X136596666Y-105993809D01*
X136644285Y-106184285D01*
X136691904Y-106279523D01*
X136787142Y-106374761D01*
X136930000Y-106422380D01*
X137025238Y-106422380D01*
X137168095Y-106374761D01*
X137215714Y-106327142D01*
X137215714Y-105993809D01*
X137025238Y-105993809D01*
X137644285Y-106422380D02*
X137644285Y-105422380D01*
X138215714Y-106422380D01*
X138215714Y-105422380D01*
X138691904Y-106422380D02*
X138691904Y-105422380D01*
X138930000Y-105422380D01*
X139072857Y-105470000D01*
X139168095Y-105565238D01*
X139215714Y-105660476D01*
X139263333Y-105850952D01*
X139263333Y-105993809D01*
X139215714Y-106184285D01*
X139168095Y-106279523D01*
X139072857Y-106374761D01*
X138930000Y-106422380D01*
X138691904Y-106422380D01*
X138713333Y-91222380D02*
X138380000Y-90746190D01*
X138141904Y-91222380D02*
X138141904Y-90222380D01*
X138522857Y-90222380D01*
X138618095Y-90270000D01*
X138665714Y-90317619D01*
X138713333Y-90412857D01*
X138713333Y-90555714D01*
X138665714Y-90650952D01*
X138618095Y-90698571D01*
X138522857Y-90746190D01*
X138141904Y-90746190D01*
X139046666Y-90222380D02*
X139713333Y-91222380D01*
X139713333Y-90222380D02*
X139046666Y-91222380D01*
X137908095Y-92762380D02*
X138479523Y-92762380D01*
X138193809Y-93762380D02*
X138193809Y-92762380D01*
X138717619Y-92762380D02*
X139384285Y-93762380D01*
X139384285Y-92762380D02*
X138717619Y-93762380D01*
X137248095Y-95500000D02*
X137152857Y-95452380D01*
X137010000Y-95452380D01*
X136867142Y-95500000D01*
X136771904Y-95595238D01*
X136724285Y-95690476D01*
X136676666Y-95880952D01*
X136676666Y-96023809D01*
X136724285Y-96214285D01*
X136771904Y-96309523D01*
X136867142Y-96404761D01*
X137010000Y-96452380D01*
X137105238Y-96452380D01*
X137248095Y-96404761D01*
X137295714Y-96357142D01*
X137295714Y-96023809D01*
X137105238Y-96023809D01*
X137724285Y-96452380D02*
X137724285Y-95452380D01*
X138295714Y-96452380D01*
X138295714Y-95452380D01*
X138771904Y-96452380D02*
X138771904Y-95452380D01*
X139010000Y-95452380D01*
X139152857Y-95500000D01*
X139248095Y-95595238D01*
X139295714Y-95690476D01*
X139343333Y-95880952D01*
X139343333Y-96023809D01*
X139295714Y-96214285D01*
X139248095Y-96309523D01*
X139152857Y-96404761D01*
X139010000Y-96452380D01*
X138771904Y-96452380D01*
X137348095Y-85730000D02*
X137252857Y-85682380D01*
X137110000Y-85682380D01*
X136967142Y-85730000D01*
X136871904Y-85825238D01*
X136824285Y-85920476D01*
X136776666Y-86110952D01*
X136776666Y-86253809D01*
X136824285Y-86444285D01*
X136871904Y-86539523D01*
X136967142Y-86634761D01*
X137110000Y-86682380D01*
X137205238Y-86682380D01*
X137348095Y-86634761D01*
X137395714Y-86587142D01*
X137395714Y-86253809D01*
X137205238Y-86253809D01*
X137824285Y-86682380D02*
X137824285Y-85682380D01*
X138395714Y-86682380D01*
X138395714Y-85682380D01*
X138871904Y-86682380D02*
X138871904Y-85682380D01*
X139110000Y-85682380D01*
X139252857Y-85730000D01*
X139348095Y-85825238D01*
X139395714Y-85920476D01*
X139443333Y-86110952D01*
X139443333Y-86253809D01*
X139395714Y-86444285D01*
X139348095Y-86539523D01*
X139252857Y-86634761D01*
X139110000Y-86682380D01*
X138871904Y-86682380D01*
X138008095Y-82992380D02*
X138579523Y-82992380D01*
X138293809Y-83992380D02*
X138293809Y-82992380D01*
X138817619Y-82992380D02*
X139484285Y-83992380D01*
X139484285Y-82992380D02*
X138817619Y-83992380D01*
X138813333Y-81452380D02*
X138480000Y-80976190D01*
X138241904Y-81452380D02*
X138241904Y-80452380D01*
X138622857Y-80452380D01*
X138718095Y-80500000D01*
X138765714Y-80547619D01*
X138813333Y-80642857D01*
X138813333Y-80785714D01*
X138765714Y-80880952D01*
X138718095Y-80928571D01*
X138622857Y-80976190D01*
X138241904Y-80976190D01*
X139146666Y-80452380D02*
X139813333Y-81452380D01*
X139813333Y-80452380D02*
X139146666Y-81452380D01*
X135952380Y-94371428D02*
X136761904Y-94371428D01*
X136857142Y-94323809D01*
X136904761Y-94276190D01*
X136952380Y-94180952D01*
X136952380Y-93990476D01*
X136904761Y-93895238D01*
X136857142Y-93847619D01*
X136761904Y-93800000D01*
X135952380Y-93800000D01*
X136666666Y-93371428D02*
X136666666Y-92895238D01*
X136952380Y-93466666D02*
X135952380Y-93133333D01*
X136952380Y-92800000D01*
X136952380Y-91895238D02*
X136476190Y-92228571D01*
X136952380Y-92466666D02*
X135952380Y-92466666D01*
X135952380Y-92085714D01*
X136000000Y-91990476D01*
X136047619Y-91942857D01*
X136142857Y-91895238D01*
X136285714Y-91895238D01*
X136380952Y-91942857D01*
X136428571Y-91990476D01*
X136476190Y-92085714D01*
X136476190Y-92466666D01*
X135952380Y-91609523D02*
X135952380Y-91038095D01*
X136952380Y-91323809D02*
X135952380Y-91323809D01*
X136047619Y-90752380D02*
X136000000Y-90704761D01*
X135952380Y-90609523D01*
X135952380Y-90371428D01*
X136000000Y-90276190D01*
X136047619Y-90228571D01*
X136142857Y-90180952D01*
X136238095Y-90180952D01*
X136380952Y-90228571D01*
X136952380Y-90800000D01*
X136952380Y-90180952D01*
X135952380Y-104471428D02*
X136761904Y-104471428D01*
X136857142Y-104423809D01*
X136904761Y-104376190D01*
X136952380Y-104280952D01*
X136952380Y-104090476D01*
X136904761Y-103995238D01*
X136857142Y-103947619D01*
X136761904Y-103900000D01*
X135952380Y-103900000D01*
X136666666Y-103471428D02*
X136666666Y-102995238D01*
X136952380Y-103566666D02*
X135952380Y-103233333D01*
X136952380Y-102900000D01*
X136952380Y-101995238D02*
X136476190Y-102328571D01*
X136952380Y-102566666D02*
X135952380Y-102566666D01*
X135952380Y-102185714D01*
X136000000Y-102090476D01*
X136047619Y-102042857D01*
X136142857Y-101995238D01*
X136285714Y-101995238D01*
X136380952Y-102042857D01*
X136428571Y-102090476D01*
X136476190Y-102185714D01*
X136476190Y-102566666D01*
X135952380Y-101709523D02*
X135952380Y-101138095D01*
X136952380Y-101423809D02*
X135952380Y-101423809D01*
X136952380Y-100280952D02*
X136952380Y-100852380D01*
X136952380Y-100566666D02*
X135952380Y-100566666D01*
X136095238Y-100661904D01*
X136190476Y-100757142D01*
X136238095Y-100852380D01*
X136052380Y-113871428D02*
X136861904Y-113871428D01*
X136957142Y-113823809D01*
X137004761Y-113776190D01*
X137052380Y-113680952D01*
X137052380Y-113490476D01*
X137004761Y-113395238D01*
X136957142Y-113347619D01*
X136861904Y-113300000D01*
X136052380Y-113300000D01*
X136766666Y-112871428D02*
X136766666Y-112395238D01*
X137052380Y-112966666D02*
X136052380Y-112633333D01*
X137052380Y-112300000D01*
X137052380Y-111395238D02*
X136576190Y-111728571D01*
X137052380Y-111966666D02*
X136052380Y-111966666D01*
X136052380Y-111585714D01*
X136100000Y-111490476D01*
X136147619Y-111442857D01*
X136242857Y-111395238D01*
X136385714Y-111395238D01*
X136480952Y-111442857D01*
X136528571Y-111490476D01*
X136576190Y-111585714D01*
X136576190Y-111966666D01*
X136052380Y-111109523D02*
X136052380Y-110538095D01*
X137052380Y-110823809D02*
X136052380Y-110823809D01*
X136052380Y-110014285D02*
X136052380Y-109919047D01*
X136100000Y-109823809D01*
X136147619Y-109776190D01*
X136242857Y-109728571D01*
X136433333Y-109680952D01*
X136671428Y-109680952D01*
X136861904Y-109728571D01*
X136957142Y-109776190D01*
X137004761Y-109823809D01*
X137052380Y-109919047D01*
X137052380Y-110014285D01*
X137004761Y-110109523D01*
X136957142Y-110157142D01*
X136861904Y-110204761D01*
X136671428Y-110252380D01*
X136433333Y-110252380D01*
X136242857Y-110204761D01*
X136147619Y-110157142D01*
X136100000Y-110109523D01*
X136052380Y-110014285D01*
D13*
X124357142Y-108000000D02*
X124357142Y-107428571D01*
X124500000Y-107142857D01*
X124785714Y-106857142D01*
X125357142Y-106714285D01*
X126357142Y-106714285D01*
X126928571Y-106857142D01*
X127214285Y-107142857D01*
X127357142Y-107428571D01*
X127357142Y-108000000D01*
X127214285Y-108285714D01*
X126928571Y-108571428D01*
X126357142Y-108714285D01*
X125357142Y-108714285D01*
X124785714Y-108571428D01*
X124500000Y-108285714D01*
X124357142Y-108000000D01*
X127214285Y-104142857D02*
X127357142Y-104428571D01*
X127357142Y-105000000D01*
X127214285Y-105285714D01*
X127071428Y-105428571D01*
X126785714Y-105571428D01*
X125928571Y-105571428D01*
X125642857Y-105428571D01*
X125500000Y-105285714D01*
X125357142Y-105000000D01*
X125357142Y-104428571D01*
X125500000Y-104142857D01*
X125357142Y-103285714D02*
X125357142Y-102142857D01*
X124357142Y-102857142D02*
X126928571Y-102857142D01*
X127214285Y-102714285D01*
X127357142Y-102428571D01*
X127357142Y-102142857D01*
X127357142Y-100714285D02*
X127214285Y-101000000D01*
X127071428Y-101142857D01*
X126785714Y-101285714D01*
X125928571Y-101285714D01*
X125642857Y-101142857D01*
X125500000Y-101000000D01*
X125357142Y-100714285D01*
X125357142Y-100285714D01*
X125500000Y-100000000D01*
X125642857Y-99857142D01*
X125928571Y-99714285D01*
X126785714Y-99714285D01*
X127071428Y-99857142D01*
X127214285Y-100000000D01*
X127357142Y-100285714D01*
X127357142Y-100714285D01*
X127214285Y-98571428D02*
X127357142Y-98142857D01*
X127357142Y-97428571D01*
X127214285Y-97142857D01*
X127071428Y-97000000D01*
X126785714Y-96857142D01*
X126500000Y-96857142D01*
X126214285Y-97000000D01*
X126071428Y-97142857D01*
X125928571Y-97428571D01*
X125785714Y-98000000D01*
X125642857Y-98285714D01*
X125500000Y-98428571D01*
X125214285Y-98571428D01*
X124928571Y-98571428D01*
X124642857Y-98428571D01*
X124500000Y-98285714D01*
X124357142Y-98000000D01*
X124357142Y-97285714D01*
X124500000Y-96857142D01*
X127214285Y-94428571D02*
X127357142Y-94714285D01*
X127357142Y-95285714D01*
X127214285Y-95571428D01*
X126928571Y-95714285D01*
X125785714Y-95714285D01*
X125500000Y-95571428D01*
X125357142Y-95285714D01*
X125357142Y-94714285D01*
X125500000Y-94428571D01*
X125785714Y-94285714D01*
X126071428Y-94285714D01*
X126357142Y-95714285D01*
X127357142Y-93000000D02*
X125357142Y-93000000D01*
X125928571Y-93000000D02*
X125642857Y-92857142D01*
X125500000Y-92714285D01*
X125357142Y-92428571D01*
X125357142Y-92142857D01*
X127357142Y-91142857D02*
X125357142Y-91142857D01*
X124357142Y-91142857D02*
X124500000Y-91285714D01*
X124642857Y-91142857D01*
X124500000Y-91000000D01*
X124357142Y-91142857D01*
X124642857Y-91142857D01*
X127357142Y-88428571D02*
X125785714Y-88428571D01*
X125500000Y-88571428D01*
X125357142Y-88857142D01*
X125357142Y-89428571D01*
X125500000Y-89714285D01*
X127214285Y-88428571D02*
X127357142Y-88714285D01*
X127357142Y-89428571D01*
X127214285Y-89714285D01*
X126928571Y-89857142D01*
X126642857Y-89857142D01*
X126357142Y-89714285D01*
X126214285Y-89428571D01*
X126214285Y-88714285D01*
X126071428Y-88428571D01*
X127357142Y-86571428D02*
X127214285Y-86857142D01*
X126928571Y-87000000D01*
X124357142Y-87000000D01*
X125357142Y-83428571D02*
X127357142Y-82714285D01*
X125357142Y-82000000D01*
X127357142Y-79285714D02*
X127357142Y-81000000D01*
X127357142Y-80142857D02*
X124357142Y-80142857D01*
X124785714Y-80428571D01*
X125071428Y-80714285D01*
X125214285Y-81000000D01*
D10*
X45297619Y-100430952D02*
X44583333Y-100430952D01*
X44440476Y-100383333D01*
X44345238Y-100288095D01*
X44297619Y-100145238D01*
X44297619Y-100050000D01*
X44297619Y-101383333D02*
X44297619Y-100907142D01*
X45297619Y-100907142D01*
X44392857Y-102288095D02*
X44345238Y-102240476D01*
X44297619Y-102097619D01*
X44297619Y-102002380D01*
X44345238Y-101859523D01*
X44440476Y-101764285D01*
X44535714Y-101716666D01*
X44726190Y-101669047D01*
X44869047Y-101669047D01*
X45059523Y-101716666D01*
X45154761Y-101764285D01*
X45250000Y-101859523D01*
X45297619Y-102002380D01*
X45297619Y-102097619D01*
X45250000Y-102240476D01*
X45202380Y-102288095D01*
X45297619Y-103002380D02*
X44583333Y-103002380D01*
X44440476Y-102954761D01*
X44345238Y-102859523D01*
X44297619Y-102716666D01*
X44297619Y-102621428D01*
X44297619Y-103954761D02*
X44297619Y-103478571D01*
X45297619Y-103478571D01*
X44392857Y-104859523D02*
X44345238Y-104811904D01*
X44297619Y-104669047D01*
X44297619Y-104573809D01*
X44345238Y-104430952D01*
X44440476Y-104335714D01*
X44535714Y-104288095D01*
X44726190Y-104240476D01*
X44869047Y-104240476D01*
X45059523Y-104288095D01*
X45154761Y-104335714D01*
X45250000Y-104430952D01*
X45297619Y-104573809D01*
X45297619Y-104669047D01*
X45250000Y-104811904D01*
X45202380Y-104859523D01*
X45297619Y-105573809D02*
X44583333Y-105573809D01*
X44440476Y-105526190D01*
X44345238Y-105430952D01*
X44297619Y-105288095D01*
X44297619Y-105192857D01*
X44297619Y-106526190D02*
X44297619Y-106050000D01*
X45297619Y-106050000D01*
X44392857Y-107430952D02*
X44345238Y-107383333D01*
X44297619Y-107240476D01*
X44297619Y-107145238D01*
X44345238Y-107002380D01*
X44440476Y-106907142D01*
X44535714Y-106859523D01*
X44726190Y-106811904D01*
X44869047Y-106811904D01*
X45059523Y-106859523D01*
X45154761Y-106907142D01*
X45250000Y-107002380D01*
X45297619Y-107145238D01*
X45297619Y-107240476D01*
X45250000Y-107383333D01*
X45202380Y-107430952D01*
X45297619Y-108145238D02*
X44583333Y-108145238D01*
X44440476Y-108097619D01*
X44345238Y-108002380D01*
X44297619Y-107859523D01*
X44297619Y-107764285D01*
X44297619Y-109097619D02*
X44297619Y-108621428D01*
X45297619Y-108621428D01*
X44392857Y-110002380D02*
X44345238Y-109954761D01*
X44297619Y-109811904D01*
X44297619Y-109716666D01*
X44345238Y-109573809D01*
X44440476Y-109478571D01*
X44535714Y-109430952D01*
X44726190Y-109383333D01*
X44869047Y-109383333D01*
X45059523Y-109430952D01*
X45154761Y-109478571D01*
X45250000Y-109573809D01*
X45297619Y-109716666D01*
X45297619Y-109811904D01*
X45250000Y-109954761D01*
X45202380Y-110002380D01*
X45874166Y-106202380D02*
X45874166Y-106916666D01*
X45826547Y-107059523D01*
X45731309Y-107154761D01*
X45588452Y-107202380D01*
X45493214Y-107202380D01*
X46874166Y-107202380D02*
X46302738Y-107202380D01*
X46588452Y-107202380D02*
X46588452Y-106202380D01*
X46493214Y-106345238D01*
X46397976Y-106440476D01*
X46302738Y-106488095D01*
X85132380Y-116033333D02*
X84656190Y-116366666D01*
X85132380Y-116604761D02*
X84132380Y-116604761D01*
X84132380Y-116223809D01*
X84180000Y-116128571D01*
X84227619Y-116080952D01*
X84322857Y-116033333D01*
X84465714Y-116033333D01*
X84560952Y-116080952D01*
X84608571Y-116128571D01*
X84656190Y-116223809D01*
X84656190Y-116604761D01*
X84608571Y-115604761D02*
X84608571Y-115271428D01*
X85132380Y-115128571D02*
X85132380Y-115604761D01*
X84132380Y-115604761D01*
X84132380Y-115128571D01*
X84608571Y-114366666D02*
X84608571Y-114700000D01*
X85132380Y-114700000D02*
X84132380Y-114700000D01*
X84132380Y-114223809D01*
X84132380Y-113700000D02*
X84370476Y-113700000D01*
X84275238Y-113938095D02*
X84370476Y-113700000D01*
X84275238Y-113461904D01*
X84560952Y-113842857D02*
X84370476Y-113700000D01*
X84560952Y-113557142D01*
X84132380Y-112938095D02*
X84370476Y-112938095D01*
X84275238Y-113176190D02*
X84370476Y-112938095D01*
X84275238Y-112700000D01*
X84560952Y-113080952D02*
X84370476Y-112938095D01*
X84560952Y-112795238D01*
X76532380Y-98854166D02*
X76056190Y-99187500D01*
X76532380Y-99425595D02*
X75532380Y-99425595D01*
X75532380Y-99044642D01*
X75580000Y-98949404D01*
X75627619Y-98901785D01*
X75722857Y-98854166D01*
X75865714Y-98854166D01*
X75960952Y-98901785D01*
X76008571Y-98949404D01*
X76056190Y-99044642D01*
X76056190Y-99425595D01*
X75865714Y-97997023D02*
X76532380Y-97997023D01*
X75484761Y-98235119D02*
X76199047Y-98473214D01*
X76199047Y-97854166D01*
X81332380Y-98866666D02*
X80856190Y-99200000D01*
X81332380Y-99438095D02*
X80332380Y-99438095D01*
X80332380Y-99057142D01*
X80380000Y-98961904D01*
X80427619Y-98914285D01*
X80522857Y-98866666D01*
X80665714Y-98866666D01*
X80760952Y-98914285D01*
X80808571Y-98961904D01*
X80856190Y-99057142D01*
X80856190Y-99438095D01*
X80332380Y-98533333D02*
X80332380Y-97914285D01*
X80713333Y-98247619D01*
X80713333Y-98104761D01*
X80760952Y-98009523D01*
X80808571Y-97961904D01*
X80903809Y-97914285D01*
X81141904Y-97914285D01*
X81237142Y-97961904D01*
X81284761Y-98009523D01*
X81332380Y-98104761D01*
X81332380Y-98390476D01*
X81284761Y-98485714D01*
X81237142Y-98533333D01*
X48883333Y-80507142D02*
X48835714Y-80554761D01*
X48692857Y-80602380D01*
X48597619Y-80602380D01*
X48454761Y-80554761D01*
X48359523Y-80459523D01*
X48311904Y-80364285D01*
X48264285Y-80173809D01*
X48264285Y-80030952D01*
X48311904Y-79840476D01*
X48359523Y-79745238D01*
X48454761Y-79650000D01*
X48597619Y-79602380D01*
X48692857Y-79602380D01*
X48835714Y-79650000D01*
X48883333Y-79697619D01*
X49359523Y-80602380D02*
X49550000Y-80602380D01*
X49645238Y-80554761D01*
X49692857Y-80507142D01*
X49788095Y-80364285D01*
X49835714Y-80173809D01*
X49835714Y-79792857D01*
X49788095Y-79697619D01*
X49740476Y-79650000D01*
X49645238Y-79602380D01*
X49454761Y-79602380D01*
X49359523Y-79650000D01*
X49311904Y-79697619D01*
X49264285Y-79792857D01*
X49264285Y-80030952D01*
X49311904Y-80126190D01*
X49359523Y-80173809D01*
X49454761Y-80221428D01*
X49645238Y-80221428D01*
X49740476Y-80173809D01*
X49788095Y-80126190D01*
X49835714Y-80030952D01*
X48833333Y-75757142D02*
X48785714Y-75804761D01*
X48642857Y-75852380D01*
X48547619Y-75852380D01*
X48404761Y-75804761D01*
X48309523Y-75709523D01*
X48261904Y-75614285D01*
X48214285Y-75423809D01*
X48214285Y-75280952D01*
X48261904Y-75090476D01*
X48309523Y-74995238D01*
X48404761Y-74900000D01*
X48547619Y-74852380D01*
X48642857Y-74852380D01*
X48785714Y-74900000D01*
X48833333Y-74947619D01*
X49738095Y-74852380D02*
X49261904Y-74852380D01*
X49214285Y-75328571D01*
X49261904Y-75280952D01*
X49357142Y-75233333D01*
X49595238Y-75233333D01*
X49690476Y-75280952D01*
X49738095Y-75328571D01*
X49785714Y-75423809D01*
X49785714Y-75661904D01*
X49738095Y-75757142D01*
X49690476Y-75804761D01*
X49595238Y-75852380D01*
X49357142Y-75852380D01*
X49261904Y-75804761D01*
X49214285Y-75757142D01*
X81833333Y-104507142D02*
X81785714Y-104554761D01*
X81642857Y-104602380D01*
X81547619Y-104602380D01*
X81404761Y-104554761D01*
X81309523Y-104459523D01*
X81261904Y-104364285D01*
X81214285Y-104173809D01*
X81214285Y-104030952D01*
X81261904Y-103840476D01*
X81309523Y-103745238D01*
X81404761Y-103650000D01*
X81547619Y-103602380D01*
X81642857Y-103602380D01*
X81785714Y-103650000D01*
X81833333Y-103697619D01*
X82166666Y-103602380D02*
X82785714Y-103602380D01*
X82452380Y-103983333D01*
X82595238Y-103983333D01*
X82690476Y-104030952D01*
X82738095Y-104078571D01*
X82785714Y-104173809D01*
X82785714Y-104411904D01*
X82738095Y-104507142D01*
X82690476Y-104554761D01*
X82595238Y-104602380D01*
X82309523Y-104602380D01*
X82214285Y-104554761D01*
X82166666Y-104507142D01*
X73133333Y-112007142D02*
X73085714Y-112054761D01*
X72942857Y-112102380D01*
X72847619Y-112102380D01*
X72704761Y-112054761D01*
X72609523Y-111959523D01*
X72561904Y-111864285D01*
X72514285Y-111673809D01*
X72514285Y-111530952D01*
X72561904Y-111340476D01*
X72609523Y-111245238D01*
X72704761Y-111150000D01*
X72847619Y-111102380D01*
X72942857Y-111102380D01*
X73085714Y-111150000D01*
X73133333Y-111197619D01*
X74085714Y-112102380D02*
X73514285Y-112102380D01*
X73800000Y-112102380D02*
X73800000Y-111102380D01*
X73704761Y-111245238D01*
X73609523Y-111340476D01*
X73514285Y-111388095D01*
X80242380Y-80788095D02*
X80242380Y-80216666D01*
X81242380Y-80502380D02*
X80242380Y-80502380D01*
X81242380Y-79883333D02*
X80242380Y-79883333D01*
X80242380Y-79502380D01*
X80290000Y-79407142D01*
X80337619Y-79359523D01*
X80432857Y-79311904D01*
X80575714Y-79311904D01*
X80670952Y-79359523D01*
X80718571Y-79407142D01*
X80766190Y-79502380D01*
X80766190Y-79883333D01*
X81242380Y-78359523D02*
X81242380Y-78930952D01*
X81242380Y-78645238D02*
X80242380Y-78645238D01*
X80385238Y-78740476D01*
X80480476Y-78835714D01*
X80528095Y-78930952D01*
X80242380Y-78026190D02*
X80242380Y-77407142D01*
X80623333Y-77740476D01*
X80623333Y-77597619D01*
X80670952Y-77502380D01*
X80718571Y-77454761D01*
X80813809Y-77407142D01*
X81051904Y-77407142D01*
X81147142Y-77454761D01*
X81194761Y-77502380D01*
X81242380Y-77597619D01*
X81242380Y-77883333D01*
X81194761Y-77978571D01*
X81147142Y-78026190D01*
X75361904Y-79792380D02*
X75933333Y-79792380D01*
X75647619Y-80792380D02*
X75647619Y-79792380D01*
X76266666Y-80792380D02*
X76266666Y-79792380D01*
X76647619Y-79792380D01*
X76742857Y-79840000D01*
X76790476Y-79887619D01*
X76838095Y-79982857D01*
X76838095Y-80125714D01*
X76790476Y-80220952D01*
X76742857Y-80268571D01*
X76647619Y-80316190D01*
X76266666Y-80316190D01*
X77790476Y-80792380D02*
X77219047Y-80792380D01*
X77504761Y-80792380D02*
X77504761Y-79792380D01*
X77409523Y-79935238D01*
X77314285Y-80030476D01*
X77219047Y-80078095D01*
X78171428Y-79887619D02*
X78219047Y-79840000D01*
X78314285Y-79792380D01*
X78552380Y-79792380D01*
X78647619Y-79840000D01*
X78695238Y-79887619D01*
X78742857Y-79982857D01*
X78742857Y-80078095D01*
X78695238Y-80220952D01*
X78123809Y-80792380D01*
X78742857Y-80792380D01*
X60361904Y-77804380D02*
X60933333Y-77804380D01*
X60647619Y-78804380D02*
X60647619Y-77804380D01*
X61266666Y-78804380D02*
X61266666Y-77804380D01*
X61647619Y-77804380D01*
X61742857Y-77852000D01*
X61790476Y-77899619D01*
X61838095Y-77994857D01*
X61838095Y-78137714D01*
X61790476Y-78232952D01*
X61742857Y-78280571D01*
X61647619Y-78328190D01*
X61266666Y-78328190D01*
X62790476Y-78804380D02*
X62219047Y-78804380D01*
X62504761Y-78804380D02*
X62504761Y-77804380D01*
X62409523Y-77947238D01*
X62314285Y-78042476D01*
X62219047Y-78090095D01*
X63742857Y-78804380D02*
X63171428Y-78804380D01*
X63457142Y-78804380D02*
X63457142Y-77804380D01*
X63361904Y-77947238D01*
X63266666Y-78042476D01*
X63171428Y-78090095D01*
X71821904Y-79772380D02*
X72393333Y-79772380D01*
X72107619Y-80772380D02*
X72107619Y-79772380D01*
X72726666Y-80772380D02*
X72726666Y-79772380D01*
X73107619Y-79772380D01*
X73202857Y-79820000D01*
X73250476Y-79867619D01*
X73298095Y-79962857D01*
X73298095Y-80105714D01*
X73250476Y-80200952D01*
X73202857Y-80248571D01*
X73107619Y-80296190D01*
X72726666Y-80296190D01*
X74250476Y-80772380D02*
X73679047Y-80772380D01*
X73964761Y-80772380D02*
X73964761Y-79772380D01*
X73869523Y-79915238D01*
X73774285Y-80010476D01*
X73679047Y-80058095D01*
X74869523Y-79772380D02*
X74964761Y-79772380D01*
X75060000Y-79820000D01*
X75107619Y-79867619D01*
X75155238Y-79962857D01*
X75202857Y-80153333D01*
X75202857Y-80391428D01*
X75155238Y-80581904D01*
X75107619Y-80677142D01*
X75060000Y-80724761D01*
X74964761Y-80772380D01*
X74869523Y-80772380D01*
X74774285Y-80724761D01*
X74726666Y-80677142D01*
X74679047Y-80581904D01*
X74631428Y-80391428D01*
X74631428Y-80153333D01*
X74679047Y-79962857D01*
X74726666Y-79867619D01*
X74774285Y-79820000D01*
X74869523Y-79772380D01*
X59738095Y-76204380D02*
X60309523Y-76204380D01*
X60023809Y-77204380D02*
X60023809Y-76204380D01*
X60642857Y-77204380D02*
X60642857Y-76204380D01*
X61023809Y-76204380D01*
X61119047Y-76252000D01*
X61166666Y-76299619D01*
X61214285Y-76394857D01*
X61214285Y-76537714D01*
X61166666Y-76632952D01*
X61119047Y-76680571D01*
X61023809Y-76728190D01*
X60642857Y-76728190D01*
X61690476Y-77204380D02*
X61880952Y-77204380D01*
X61976190Y-77156761D01*
X62023809Y-77109142D01*
X62119047Y-76966285D01*
X62166666Y-76775809D01*
X62166666Y-76394857D01*
X62119047Y-76299619D01*
X62071428Y-76252000D01*
X61976190Y-76204380D01*
X61785714Y-76204380D01*
X61690476Y-76252000D01*
X61642857Y-76299619D01*
X61595238Y-76394857D01*
X61595238Y-76632952D01*
X61642857Y-76728190D01*
X61690476Y-76775809D01*
X61785714Y-76823428D01*
X61976190Y-76823428D01*
X62071428Y-76775809D01*
X62119047Y-76728190D01*
X62166666Y-76632952D01*
X80362380Y-77221904D02*
X80362380Y-76650476D01*
X81362380Y-76936190D02*
X80362380Y-76936190D01*
X81362380Y-76317142D02*
X80362380Y-76317142D01*
X80362380Y-75936190D01*
X80410000Y-75840952D01*
X80457619Y-75793333D01*
X80552857Y-75745714D01*
X80695714Y-75745714D01*
X80790952Y-75793333D01*
X80838571Y-75840952D01*
X80886190Y-75936190D01*
X80886190Y-76317142D01*
X80790952Y-75174285D02*
X80743333Y-75269523D01*
X80695714Y-75317142D01*
X80600476Y-75364761D01*
X80552857Y-75364761D01*
X80457619Y-75317142D01*
X80410000Y-75269523D01*
X80362380Y-75174285D01*
X80362380Y-74983809D01*
X80410000Y-74888571D01*
X80457619Y-74840952D01*
X80552857Y-74793333D01*
X80600476Y-74793333D01*
X80695714Y-74840952D01*
X80743333Y-74888571D01*
X80790952Y-74983809D01*
X80790952Y-75174285D01*
X80838571Y-75269523D01*
X80886190Y-75317142D01*
X80981428Y-75364761D01*
X81171904Y-75364761D01*
X81267142Y-75317142D01*
X81314761Y-75269523D01*
X81362380Y-75174285D01*
X81362380Y-74983809D01*
X81314761Y-74888571D01*
X81267142Y-74840952D01*
X81171904Y-74793333D01*
X80981428Y-74793333D01*
X80886190Y-74840952D01*
X80838571Y-74888571D01*
X80790952Y-74983809D01*
X75908095Y-74332380D02*
X76479523Y-74332380D01*
X76193809Y-75332380D02*
X76193809Y-74332380D01*
X76812857Y-75332380D02*
X76812857Y-74332380D01*
X77193809Y-74332380D01*
X77289047Y-74380000D01*
X77336666Y-74427619D01*
X77384285Y-74522857D01*
X77384285Y-74665714D01*
X77336666Y-74760952D01*
X77289047Y-74808571D01*
X77193809Y-74856190D01*
X76812857Y-74856190D01*
X77717619Y-74332380D02*
X78384285Y-74332380D01*
X77955714Y-75332380D01*
X73238095Y-74304380D02*
X73809523Y-74304380D01*
X73523809Y-75304380D02*
X73523809Y-74304380D01*
X74142857Y-75304380D02*
X74142857Y-74304380D01*
X74523809Y-74304380D01*
X74619047Y-74352000D01*
X74666666Y-74399619D01*
X74714285Y-74494857D01*
X74714285Y-74637714D01*
X74666666Y-74732952D01*
X74619047Y-74780571D01*
X74523809Y-74828190D01*
X74142857Y-74828190D01*
X75571428Y-74304380D02*
X75380952Y-74304380D01*
X75285714Y-74352000D01*
X75238095Y-74399619D01*
X75142857Y-74542476D01*
X75095238Y-74732952D01*
X75095238Y-75113904D01*
X75142857Y-75209142D01*
X75190476Y-75256761D01*
X75285714Y-75304380D01*
X75476190Y-75304380D01*
X75571428Y-75256761D01*
X75619047Y-75209142D01*
X75666666Y-75113904D01*
X75666666Y-74875809D01*
X75619047Y-74780571D01*
X75571428Y-74732952D01*
X75476190Y-74685333D01*
X75285714Y-74685333D01*
X75190476Y-74732952D01*
X75142857Y-74780571D01*
X75095238Y-74875809D01*
X80372380Y-74191904D02*
X80372380Y-73620476D01*
X81372380Y-73906190D02*
X80372380Y-73906190D01*
X81372380Y-73287142D02*
X80372380Y-73287142D01*
X80372380Y-72906190D01*
X80420000Y-72810952D01*
X80467619Y-72763333D01*
X80562857Y-72715714D01*
X80705714Y-72715714D01*
X80800952Y-72763333D01*
X80848571Y-72810952D01*
X80896190Y-72906190D01*
X80896190Y-73287142D01*
X80372380Y-71810952D02*
X80372380Y-72287142D01*
X80848571Y-72334761D01*
X80800952Y-72287142D01*
X80753333Y-72191904D01*
X80753333Y-71953809D01*
X80800952Y-71858571D01*
X80848571Y-71810952D01*
X80943809Y-71763333D01*
X81181904Y-71763333D01*
X81277142Y-71810952D01*
X81324761Y-71858571D01*
X81372380Y-71953809D01*
X81372380Y-72191904D01*
X81324761Y-72287142D01*
X81277142Y-72334761D01*
X75778095Y-71092380D02*
X76349523Y-71092380D01*
X76063809Y-72092380D02*
X76063809Y-71092380D01*
X76682857Y-72092380D02*
X76682857Y-71092380D01*
X77063809Y-71092380D01*
X77159047Y-71140000D01*
X77206666Y-71187619D01*
X77254285Y-71282857D01*
X77254285Y-71425714D01*
X77206666Y-71520952D01*
X77159047Y-71568571D01*
X77063809Y-71616190D01*
X76682857Y-71616190D01*
X78111428Y-71425714D02*
X78111428Y-72092380D01*
X77873333Y-71044761D02*
X77635238Y-71759047D01*
X78254285Y-71759047D01*
X73158095Y-71102380D02*
X73729523Y-71102380D01*
X73443809Y-72102380D02*
X73443809Y-71102380D01*
X74062857Y-72102380D02*
X74062857Y-71102380D01*
X74443809Y-71102380D01*
X74539047Y-71150000D01*
X74586666Y-71197619D01*
X74634285Y-71292857D01*
X74634285Y-71435714D01*
X74586666Y-71530952D01*
X74539047Y-71578571D01*
X74443809Y-71626190D01*
X74062857Y-71626190D01*
X74967619Y-71102380D02*
X75586666Y-71102380D01*
X75253333Y-71483333D01*
X75396190Y-71483333D01*
X75491428Y-71530952D01*
X75539047Y-71578571D01*
X75586666Y-71673809D01*
X75586666Y-71911904D01*
X75539047Y-72007142D01*
X75491428Y-72054761D01*
X75396190Y-72102380D01*
X75110476Y-72102380D01*
X75015238Y-72054761D01*
X74967619Y-72007142D01*
X59838095Y-71104380D02*
X60409523Y-71104380D01*
X60123809Y-72104380D02*
X60123809Y-71104380D01*
X60742857Y-72104380D02*
X60742857Y-71104380D01*
X61123809Y-71104380D01*
X61219047Y-71152000D01*
X61266666Y-71199619D01*
X61314285Y-71294857D01*
X61314285Y-71437714D01*
X61266666Y-71532952D01*
X61219047Y-71580571D01*
X61123809Y-71628190D01*
X60742857Y-71628190D01*
X61695238Y-71199619D02*
X61742857Y-71152000D01*
X61838095Y-71104380D01*
X62076190Y-71104380D01*
X62171428Y-71152000D01*
X62219047Y-71199619D01*
X62266666Y-71294857D01*
X62266666Y-71390095D01*
X62219047Y-71532952D01*
X61647619Y-72104380D01*
X62266666Y-72104380D01*
X70838095Y-67304380D02*
X71409523Y-67304380D01*
X71123809Y-68304380D02*
X71123809Y-67304380D01*
X71742857Y-68304380D02*
X71742857Y-67304380D01*
X72123809Y-67304380D01*
X72219047Y-67352000D01*
X72266666Y-67399619D01*
X72314285Y-67494857D01*
X72314285Y-67637714D01*
X72266666Y-67732952D01*
X72219047Y-67780571D01*
X72123809Y-67828190D01*
X71742857Y-67828190D01*
X73266666Y-68304380D02*
X72695238Y-68304380D01*
X72980952Y-68304380D02*
X72980952Y-67304380D01*
X72885714Y-67447238D01*
X72790476Y-67542476D01*
X72695238Y-67590095D01*
X73232380Y-99438095D02*
X72232380Y-99438095D01*
X72232380Y-99200000D01*
X72280000Y-99057142D01*
X72375238Y-98961904D01*
X72470476Y-98914285D01*
X72660952Y-98866666D01*
X72803809Y-98866666D01*
X72994285Y-98914285D01*
X73089523Y-98961904D01*
X73184761Y-99057142D01*
X73232380Y-99200000D01*
X73232380Y-99438095D01*
X72565714Y-98009523D02*
X73232380Y-98009523D01*
X72184761Y-98247619D02*
X72899047Y-98485714D01*
X72899047Y-97866666D01*
X84532380Y-99438095D02*
X83532380Y-99438095D01*
X83532380Y-99200000D01*
X83580000Y-99057142D01*
X83675238Y-98961904D01*
X83770476Y-98914285D01*
X83960952Y-98866666D01*
X84103809Y-98866666D01*
X84294285Y-98914285D01*
X84389523Y-98961904D01*
X84484761Y-99057142D01*
X84532380Y-99200000D01*
X84532380Y-99438095D01*
X83532380Y-98533333D02*
X83532380Y-97914285D01*
X83913333Y-98247619D01*
X83913333Y-98104761D01*
X83960952Y-98009523D01*
X84008571Y-97961904D01*
X84103809Y-97914285D01*
X84341904Y-97914285D01*
X84437142Y-97961904D01*
X84484761Y-98009523D01*
X84532380Y-98104761D01*
X84532380Y-98390476D01*
X84484761Y-98485714D01*
X84437142Y-98533333D01*
X66838095Y-68702380D02*
X66838095Y-69511904D01*
X66885714Y-69607142D01*
X66933333Y-69654761D01*
X67028571Y-69702380D01*
X67219047Y-69702380D01*
X67314285Y-69654761D01*
X67361904Y-69607142D01*
X67409523Y-69511904D01*
X67409523Y-68702380D01*
X67838095Y-68797619D02*
X67885714Y-68750000D01*
X67980952Y-68702380D01*
X68219047Y-68702380D01*
X68314285Y-68750000D01*
X68361904Y-68797619D01*
X68409523Y-68892857D01*
X68409523Y-68988095D01*
X68361904Y-69130952D01*
X67790476Y-69702380D01*
X68409523Y-69702380D01*
X145670476Y-49122380D02*
X145670476Y-49836666D01*
X145622857Y-49979523D01*
X145527619Y-50074761D01*
X145384761Y-50122380D01*
X145289523Y-50122380D01*
X146670476Y-50122380D02*
X146099047Y-50122380D01*
X146384761Y-50122380D02*
X146384761Y-49122380D01*
X146289523Y-49265238D01*
X146194285Y-49360476D01*
X146099047Y-49408095D01*
X147289523Y-49122380D02*
X147384761Y-49122380D01*
X147480000Y-49170000D01*
X147527619Y-49217619D01*
X147575238Y-49312857D01*
X147622857Y-49503333D01*
X147622857Y-49741428D01*
X147575238Y-49931904D01*
X147527619Y-50027142D01*
X147480000Y-50074761D01*
X147384761Y-50122380D01*
X147289523Y-50122380D01*
X147194285Y-50074761D01*
X147146666Y-50027142D01*
X147099047Y-49931904D01*
X147051428Y-49741428D01*
X147051428Y-49503333D01*
X147099047Y-49312857D01*
X147146666Y-49217619D01*
X147194285Y-49170000D01*
X147289523Y-49122380D01*
X146146666Y-58822380D02*
X146146666Y-59536666D01*
X146099047Y-59679523D01*
X146003809Y-59774761D01*
X145860952Y-59822380D01*
X145765714Y-59822380D01*
X146670476Y-59822380D02*
X146860952Y-59822380D01*
X146956190Y-59774761D01*
X147003809Y-59727142D01*
X147099047Y-59584285D01*
X147146666Y-59393809D01*
X147146666Y-59012857D01*
X147099047Y-58917619D01*
X147051428Y-58870000D01*
X146956190Y-58822380D01*
X146765714Y-58822380D01*
X146670476Y-58870000D01*
X146622857Y-58917619D01*
X146575238Y-59012857D01*
X146575238Y-59250952D01*
X146622857Y-59346190D01*
X146670476Y-59393809D01*
X146765714Y-59441428D01*
X146956190Y-59441428D01*
X147051428Y-59393809D01*
X147099047Y-59346190D01*
X147146666Y-59250952D01*
X147466666Y-63252380D02*
X147466666Y-63966666D01*
X147419047Y-64109523D01*
X147323809Y-64204761D01*
X147180952Y-64252380D01*
X147085714Y-64252380D01*
X148085714Y-63680952D02*
X147990476Y-63633333D01*
X147942857Y-63585714D01*
X147895238Y-63490476D01*
X147895238Y-63442857D01*
X147942857Y-63347619D01*
X147990476Y-63300000D01*
X148085714Y-63252380D01*
X148276190Y-63252380D01*
X148371428Y-63300000D01*
X148419047Y-63347619D01*
X148466666Y-63442857D01*
X148466666Y-63490476D01*
X148419047Y-63585714D01*
X148371428Y-63633333D01*
X148276190Y-63680952D01*
X148085714Y-63680952D01*
X147990476Y-63728571D01*
X147942857Y-63776190D01*
X147895238Y-63871428D01*
X147895238Y-64061904D01*
X147942857Y-64157142D01*
X147990476Y-64204761D01*
X148085714Y-64252380D01*
X148276190Y-64252380D01*
X148371428Y-64204761D01*
X148419047Y-64157142D01*
X148466666Y-64061904D01*
X148466666Y-63871428D01*
X148419047Y-63776190D01*
X148371428Y-63728571D01*
X148276190Y-63680952D01*
X147366666Y-72752380D02*
X147366666Y-73466666D01*
X147319047Y-73609523D01*
X147223809Y-73704761D01*
X147080952Y-73752380D01*
X146985714Y-73752380D01*
X147747619Y-72752380D02*
X148414285Y-72752380D01*
X147985714Y-73752380D01*
X131438095Y-110302380D02*
X131438095Y-109302380D01*
X131438095Y-109778571D02*
X132009523Y-109778571D01*
X132009523Y-110302380D02*
X132009523Y-109302380D01*
X132914285Y-109635714D02*
X132914285Y-110302380D01*
X132676190Y-109254761D02*
X132438095Y-109969047D01*
X133057142Y-109969047D01*
X46738095Y-110302380D02*
X46738095Y-109302380D01*
X46738095Y-109778571D02*
X47309523Y-109778571D01*
X47309523Y-110302380D02*
X47309523Y-109302380D01*
X47690476Y-109302380D02*
X48309523Y-109302380D01*
X47976190Y-109683333D01*
X48119047Y-109683333D01*
X48214285Y-109730952D01*
X48261904Y-109778571D01*
X48309523Y-109873809D01*
X48309523Y-110111904D01*
X48261904Y-110207142D01*
X48214285Y-110254761D01*
X48119047Y-110302380D01*
X47833333Y-110302380D01*
X47738095Y-110254761D01*
X47690476Y-110207142D01*
X46738095Y-37702380D02*
X46738095Y-36702380D01*
X46738095Y-37178571D02*
X47309523Y-37178571D01*
X47309523Y-37702380D02*
X47309523Y-36702380D01*
X47738095Y-36797619D02*
X47785714Y-36750000D01*
X47880952Y-36702380D01*
X48119047Y-36702380D01*
X48214285Y-36750000D01*
X48261904Y-36797619D01*
X48309523Y-36892857D01*
X48309523Y-36988095D01*
X48261904Y-37130952D01*
X47690476Y-37702380D01*
X48309523Y-37702380D01*
X131438095Y-37752380D02*
X131438095Y-36752380D01*
X131438095Y-37228571D02*
X132009523Y-37228571D01*
X132009523Y-37752380D02*
X132009523Y-36752380D01*
X133009523Y-37752380D02*
X132438095Y-37752380D01*
X132723809Y-37752380D02*
X132723809Y-36752380D01*
X132628571Y-36895238D01*
X132533333Y-36990476D01*
X132438095Y-37038095D01*
X58251190Y-76316190D02*
X58727380Y-76316190D01*
X57727380Y-76649523D02*
X58251190Y-76316190D01*
X57727380Y-75982857D01*
X58727380Y-75125714D02*
X58727380Y-75697142D01*
X58727380Y-75411428D02*
X57727380Y-75411428D01*
X57870238Y-75506666D01*
X57965476Y-75601904D01*
X58013095Y-75697142D01*
X147466666Y-82852380D02*
X147466666Y-83566666D01*
X147419047Y-83709523D01*
X147323809Y-83804761D01*
X147180952Y-83852380D01*
X147085714Y-83852380D01*
X148371428Y-82852380D02*
X148180952Y-82852380D01*
X148085714Y-82900000D01*
X148038095Y-82947619D01*
X147942857Y-83090476D01*
X147895238Y-83280952D01*
X147895238Y-83661904D01*
X147942857Y-83757142D01*
X147990476Y-83804761D01*
X148085714Y-83852380D01*
X148276190Y-83852380D01*
X148371428Y-83804761D01*
X148419047Y-83757142D01*
X148466666Y-83661904D01*
X148466666Y-83423809D01*
X148419047Y-83328571D01*
X148371428Y-83280952D01*
X148276190Y-83233333D01*
X148085714Y-83233333D01*
X147990476Y-83280952D01*
X147942857Y-83328571D01*
X147895238Y-83423809D01*
X147466666Y-92652380D02*
X147466666Y-93366666D01*
X147419047Y-93509523D01*
X147323809Y-93604761D01*
X147180952Y-93652380D01*
X147085714Y-93652380D01*
X148419047Y-92652380D02*
X147942857Y-92652380D01*
X147895238Y-93128571D01*
X147942857Y-93080952D01*
X148038095Y-93033333D01*
X148276190Y-93033333D01*
X148371428Y-93080952D01*
X148419047Y-93128571D01*
X148466666Y-93223809D01*
X148466666Y-93461904D01*
X148419047Y-93557142D01*
X148371428Y-93604761D01*
X148276190Y-93652380D01*
X148038095Y-93652380D01*
X147942857Y-93604761D01*
X147895238Y-93557142D01*
X147466666Y-102652380D02*
X147466666Y-103366666D01*
X147419047Y-103509523D01*
X147323809Y-103604761D01*
X147180952Y-103652380D01*
X147085714Y-103652380D01*
X148371428Y-102985714D02*
X148371428Y-103652380D01*
X148133333Y-102604761D02*
X147895238Y-103319047D01*
X148514285Y-103319047D01*
X147466666Y-112452380D02*
X147466666Y-113166666D01*
X147419047Y-113309523D01*
X147323809Y-113404761D01*
X147180952Y-113452380D01*
X147085714Y-113452380D01*
X147847619Y-112452380D02*
X148466666Y-112452380D01*
X148133333Y-112833333D01*
X148276190Y-112833333D01*
X148371428Y-112880952D01*
X148419047Y-112928571D01*
X148466666Y-113023809D01*
X148466666Y-113261904D01*
X148419047Y-113357142D01*
X148371428Y-113404761D01*
X148276190Y-113452380D01*
X147990476Y-113452380D01*
X147895238Y-113404761D01*
X147847619Y-113357142D01*
X85122380Y-111881904D02*
X85931904Y-111881904D01*
X86027142Y-111834285D01*
X86074761Y-111786666D01*
X86122380Y-111691428D01*
X86122380Y-111500952D01*
X86074761Y-111405714D01*
X86027142Y-111358095D01*
X85931904Y-111310476D01*
X85122380Y-111310476D01*
X86122380Y-110310476D02*
X86122380Y-110881904D01*
X86122380Y-110596190D02*
X85122380Y-110596190D01*
X85265238Y-110691428D01*
X85360476Y-110786666D01*
X85408095Y-110881904D01*
D12*
X55757500Y-99600000D02*
X55757500Y-98600000D01*
X55057500Y-91740000D02*
X51307500Y-91740000D01*
X55757500Y-98600000D02*
X55257500Y-99100000D01*
X38437500Y-103960000D02*
X46407500Y-103960000D01*
X55057500Y-91740000D02*
X55057500Y-103960000D01*
X55257500Y-99100000D02*
X55757500Y-99600000D01*
X38437500Y-91740000D02*
X38437500Y-103960000D01*
X38437500Y-91740000D02*
X46407500Y-91740000D01*
X55057500Y-103960000D02*
X51307500Y-103960000D01*
X85590000Y-115427064D02*
X85590000Y-113972936D01*
X87410000Y-115427064D02*
X87410000Y-113972936D01*
X76990000Y-99414564D02*
X76990000Y-97960436D01*
X78810000Y-99414564D02*
X78810000Y-97960436D01*
X81790000Y-99427064D02*
X81790000Y-97972936D01*
X83610000Y-99427064D02*
X83610000Y-97972936D01*
X49761252Y-77390000D02*
X48338748Y-77390000D01*
X49761252Y-79210000D02*
X48338748Y-79210000D01*
X49711252Y-72640000D02*
X48288748Y-72640000D01*
X49711252Y-74460000D02*
X48288748Y-74460000D01*
X81288748Y-106910000D02*
X82711252Y-106910000D01*
X81288748Y-105090000D02*
X82711252Y-105090000D01*
X74011252Y-108890000D02*
X72588748Y-108890000D01*
X74011252Y-110710000D02*
X72588748Y-110710000D01*
X79700000Y-78400000D02*
G75*
G03*
X79700000Y-78400000I-700000J0D01*
G01*
X77600000Y-78500000D02*
G75*
G03*
X77600000Y-78500000I-700000J0D01*
G01*
X62800000Y-79800000D02*
G75*
G03*
X62800000Y-79800000I-700000J0D01*
G01*
X75200000Y-78500000D02*
G75*
G03*
X75200000Y-78500000I-700000J0D01*
G01*
X61700000Y-78200000D02*
G75*
G03*
X61700000Y-78200000I-700000J0D01*
G01*
X79600000Y-76200000D02*
G75*
G03*
X79600000Y-76200000I-700000J0D01*
G01*
X77500000Y-76300000D02*
G75*
G03*
X77500000Y-76300000I-700000J0D01*
G01*
X75200000Y-76300000D02*
G75*
G03*
X75200000Y-76300000I-700000J0D01*
G01*
X79600000Y-73100000D02*
G75*
G03*
X79600000Y-73100000I-700000J0D01*
G01*
X77500000Y-73100000D02*
G75*
G03*
X77500000Y-73100000I-700000J0D01*
G01*
X75300000Y-73100000D02*
G75*
G03*
X75300000Y-73100000I-700000J0D01*
G01*
X61800000Y-73100000D02*
G75*
G03*
X61800000Y-73100000I-700000J0D01*
G01*
X72800000Y-69300000D02*
G75*
G03*
X72800000Y-69300000I-700000J0D01*
G01*
X75735000Y-101160000D02*
X75735000Y-97100000D01*
X73465000Y-101160000D02*
X75735000Y-101160000D01*
X73465000Y-97100000D02*
X73465000Y-101160000D01*
X87035000Y-101160000D02*
X87035000Y-97100000D01*
X84765000Y-101160000D02*
X87035000Y-101160000D01*
X84765000Y-97100000D02*
X84765000Y-101160000D01*
X70760000Y-71490000D02*
X71210000Y-71490000D01*
X63990000Y-78710000D02*
X63990000Y-78260000D01*
X63990000Y-71490000D02*
X63990000Y-71940000D01*
X70760000Y-78710000D02*
X71210000Y-78710000D01*
X71210000Y-78710000D02*
X71210000Y-78260000D01*
X64440000Y-71490000D02*
X63990000Y-71490000D01*
X64440000Y-78710000D02*
X63990000Y-78710000D01*
X63990000Y-71940000D02*
X62700000Y-71940000D01*
X71210000Y-71490000D02*
X71210000Y-71940000D01*
X143560000Y-44000000D02*
X143150000Y-44000000D01*
X152190000Y-47637620D02*
X143560000Y-47637620D01*
X152190000Y-46220480D02*
X143560000Y-46220480D01*
X152190000Y-45984290D02*
X143560000Y-45984290D01*
X143560000Y-46540000D02*
X143210000Y-46540000D01*
X152190000Y-48230000D02*
X143560000Y-48230000D01*
X152190000Y-43090000D02*
X143560000Y-43090000D01*
X152190000Y-46102385D02*
X143560000Y-46102385D01*
X152190000Y-47873810D02*
X143560000Y-47873810D01*
X143560000Y-47260000D02*
X143210000Y-47260000D01*
X152190000Y-47165240D02*
X143560000Y-47165240D01*
X143560000Y-42180000D02*
X143150000Y-42180000D01*
X152190000Y-47283335D02*
X143560000Y-47283335D01*
X152190000Y-48110000D02*
X143560000Y-48110000D01*
X152190000Y-46810955D02*
X143560000Y-46810955D01*
X152190000Y-45630000D02*
X143560000Y-45630000D01*
X152190000Y-45748100D02*
X143560000Y-45748100D01*
X152190000Y-47991905D02*
X143560000Y-47991905D01*
X152190000Y-47519525D02*
X143560000Y-47519525D01*
X152190000Y-47047145D02*
X143560000Y-47047145D01*
X143560000Y-48230000D02*
X143560000Y-40490000D01*
X152190000Y-46692860D02*
X143560000Y-46692860D01*
X152190000Y-46929050D02*
X143560000Y-46929050D01*
X143560000Y-44720000D02*
X143150000Y-44720000D01*
X152190000Y-46338575D02*
X143560000Y-46338575D01*
X152190000Y-40490000D02*
X143560000Y-40490000D01*
X152190000Y-47755715D02*
X143560000Y-47755715D01*
X142100000Y-48230000D02*
X140990000Y-48230000D01*
X152190000Y-46456670D02*
X143560000Y-46456670D01*
X152190000Y-47401430D02*
X143560000Y-47401430D01*
X152190000Y-45866195D02*
X143560000Y-45866195D01*
X152190000Y-48230000D02*
X152190000Y-40490000D01*
X143560000Y-41460000D02*
X143150000Y-41460000D01*
X152190000Y-46574765D02*
X143560000Y-46574765D01*
X140990000Y-48230000D02*
X140990000Y-46900000D01*
X143560000Y-53700000D02*
X143150000Y-53700000D01*
X152190000Y-57337620D02*
X143560000Y-57337620D01*
X152190000Y-55920480D02*
X143560000Y-55920480D01*
X152190000Y-55684290D02*
X143560000Y-55684290D01*
X143560000Y-56240000D02*
X143210000Y-56240000D01*
X152190000Y-57930000D02*
X143560000Y-57930000D01*
X152190000Y-52790000D02*
X143560000Y-52790000D01*
X152190000Y-55802385D02*
X143560000Y-55802385D01*
X152190000Y-57573810D02*
X143560000Y-57573810D01*
X143560000Y-56960000D02*
X143210000Y-56960000D01*
X152190000Y-56865240D02*
X143560000Y-56865240D01*
X143560000Y-51880000D02*
X143150000Y-51880000D01*
X152190000Y-56983335D02*
X143560000Y-56983335D01*
X152190000Y-57810000D02*
X143560000Y-57810000D01*
X152190000Y-56510955D02*
X143560000Y-56510955D01*
X152190000Y-55330000D02*
X143560000Y-55330000D01*
X152190000Y-55448100D02*
X143560000Y-55448100D01*
X152190000Y-57691905D02*
X143560000Y-57691905D01*
X152190000Y-57219525D02*
X143560000Y-57219525D01*
X152190000Y-56747145D02*
X143560000Y-56747145D01*
X143560000Y-57930000D02*
X143560000Y-50190000D01*
X152190000Y-56392860D02*
X143560000Y-56392860D01*
X152190000Y-56629050D02*
X143560000Y-56629050D01*
X143560000Y-54420000D02*
X143150000Y-54420000D01*
X152190000Y-56038575D02*
X143560000Y-56038575D01*
X152190000Y-50190000D02*
X143560000Y-50190000D01*
X152190000Y-57455715D02*
X143560000Y-57455715D01*
X142100000Y-57930000D02*
X140990000Y-57930000D01*
X152190000Y-56156670D02*
X143560000Y-56156670D01*
X152190000Y-57101430D02*
X143560000Y-57101430D01*
X152190000Y-55566195D02*
X143560000Y-55566195D01*
X152190000Y-57930000D02*
X152190000Y-50190000D01*
X143560000Y-51160000D02*
X143150000Y-51160000D01*
X152190000Y-56274765D02*
X143560000Y-56274765D01*
X140990000Y-57930000D02*
X140990000Y-56600000D01*
X143560000Y-63400000D02*
X143150000Y-63400000D01*
X152190000Y-67037620D02*
X143560000Y-67037620D01*
X152190000Y-65620480D02*
X143560000Y-65620480D01*
X152190000Y-65384290D02*
X143560000Y-65384290D01*
X143560000Y-65940000D02*
X143210000Y-65940000D01*
X152190000Y-67630000D02*
X143560000Y-67630000D01*
X152190000Y-62490000D02*
X143560000Y-62490000D01*
X152190000Y-65502385D02*
X143560000Y-65502385D01*
X152190000Y-67273810D02*
X143560000Y-67273810D01*
X143560000Y-66660000D02*
X143210000Y-66660000D01*
X152190000Y-66565240D02*
X143560000Y-66565240D01*
X143560000Y-61580000D02*
X143150000Y-61580000D01*
X152190000Y-66683335D02*
X143560000Y-66683335D01*
X152190000Y-67510000D02*
X143560000Y-67510000D01*
X152190000Y-66210955D02*
X143560000Y-66210955D01*
X152190000Y-65030000D02*
X143560000Y-65030000D01*
X152190000Y-65148100D02*
X143560000Y-65148100D01*
X152190000Y-67391905D02*
X143560000Y-67391905D01*
X152190000Y-66919525D02*
X143560000Y-66919525D01*
X152190000Y-66447145D02*
X143560000Y-66447145D01*
X143560000Y-67630000D02*
X143560000Y-59890000D01*
X152190000Y-66092860D02*
X143560000Y-66092860D01*
X152190000Y-66329050D02*
X143560000Y-66329050D01*
X143560000Y-64120000D02*
X143150000Y-64120000D01*
X152190000Y-65738575D02*
X143560000Y-65738575D01*
X152190000Y-59890000D02*
X143560000Y-59890000D01*
X152190000Y-67155715D02*
X143560000Y-67155715D01*
X142100000Y-67630000D02*
X140990000Y-67630000D01*
X152190000Y-65856670D02*
X143560000Y-65856670D01*
X152190000Y-66801430D02*
X143560000Y-66801430D01*
X152190000Y-65266195D02*
X143560000Y-65266195D01*
X152190000Y-67630000D02*
X152190000Y-59890000D01*
X143560000Y-60860000D02*
X143150000Y-60860000D01*
X152190000Y-65974765D02*
X143560000Y-65974765D01*
X140990000Y-67630000D02*
X140990000Y-66300000D01*
X143460000Y-73000000D02*
X143050000Y-73000000D01*
X152090000Y-76637620D02*
X143460000Y-76637620D01*
X152090000Y-75220480D02*
X143460000Y-75220480D01*
X152090000Y-74984290D02*
X143460000Y-74984290D01*
X143460000Y-75540000D02*
X143110000Y-75540000D01*
X152090000Y-77230000D02*
X143460000Y-77230000D01*
X152090000Y-72090000D02*
X143460000Y-72090000D01*
X152090000Y-75102385D02*
X143460000Y-75102385D01*
X152090000Y-76873810D02*
X143460000Y-76873810D01*
X143460000Y-76260000D02*
X143110000Y-76260000D01*
X152090000Y-76165240D02*
X143460000Y-76165240D01*
X143460000Y-71180000D02*
X143050000Y-71180000D01*
X152090000Y-76283335D02*
X143460000Y-76283335D01*
X152090000Y-77110000D02*
X143460000Y-77110000D01*
X152090000Y-75810955D02*
X143460000Y-75810955D01*
X152090000Y-74630000D02*
X143460000Y-74630000D01*
X152090000Y-74748100D02*
X143460000Y-74748100D01*
X152090000Y-76991905D02*
X143460000Y-76991905D01*
X152090000Y-76519525D02*
X143460000Y-76519525D01*
X152090000Y-76047145D02*
X143460000Y-76047145D01*
X143460000Y-77230000D02*
X143460000Y-69490000D01*
X152090000Y-75692860D02*
X143460000Y-75692860D01*
X152090000Y-75929050D02*
X143460000Y-75929050D01*
X143460000Y-73720000D02*
X143050000Y-73720000D01*
X152090000Y-75338575D02*
X143460000Y-75338575D01*
X152090000Y-69490000D02*
X143460000Y-69490000D01*
X152090000Y-76755715D02*
X143460000Y-76755715D01*
X142000000Y-77230000D02*
X140890000Y-77230000D01*
X152090000Y-75456670D02*
X143460000Y-75456670D01*
X152090000Y-76401430D02*
X143460000Y-76401430D01*
X152090000Y-74866195D02*
X143460000Y-74866195D01*
X152090000Y-77230000D02*
X152090000Y-69490000D01*
X143460000Y-70460000D02*
X143050000Y-70460000D01*
X152090000Y-75574765D02*
X143460000Y-75574765D01*
X140890000Y-77230000D02*
X140890000Y-75900000D01*
X57275000Y-72640000D02*
X57275000Y-79040000D01*
X52225000Y-72640000D02*
X52225000Y-79040000D01*
X57275000Y-72640000D02*
G75*
G03*
X52225000Y-72640000I-2525000J0D01*
G01*
X52225000Y-79040000D02*
G75*
G03*
X57275000Y-79040000I2525000J0D01*
G01*
X143460000Y-83100000D02*
X143050000Y-83100000D01*
X152090000Y-86737620D02*
X143460000Y-86737620D01*
X152090000Y-85320480D02*
X143460000Y-85320480D01*
X152090000Y-85084290D02*
X143460000Y-85084290D01*
X143460000Y-85640000D02*
X143110000Y-85640000D01*
X152090000Y-87330000D02*
X143460000Y-87330000D01*
X152090000Y-82190000D02*
X143460000Y-82190000D01*
X152090000Y-85202385D02*
X143460000Y-85202385D01*
X152090000Y-86973810D02*
X143460000Y-86973810D01*
X143460000Y-86360000D02*
X143110000Y-86360000D01*
X152090000Y-86265240D02*
X143460000Y-86265240D01*
X143460000Y-81280000D02*
X143050000Y-81280000D01*
X152090000Y-86383335D02*
X143460000Y-86383335D01*
X152090000Y-87210000D02*
X143460000Y-87210000D01*
X152090000Y-85910955D02*
X143460000Y-85910955D01*
X152090000Y-84730000D02*
X143460000Y-84730000D01*
X152090000Y-84848100D02*
X143460000Y-84848100D01*
X152090000Y-87091905D02*
X143460000Y-87091905D01*
X152090000Y-86619525D02*
X143460000Y-86619525D01*
X152090000Y-86147145D02*
X143460000Y-86147145D01*
X143460000Y-87330000D02*
X143460000Y-79590000D01*
X152090000Y-85792860D02*
X143460000Y-85792860D01*
X152090000Y-86029050D02*
X143460000Y-86029050D01*
X143460000Y-83820000D02*
X143050000Y-83820000D01*
X152090000Y-85438575D02*
X143460000Y-85438575D01*
X152090000Y-79590000D02*
X143460000Y-79590000D01*
X152090000Y-86855715D02*
X143460000Y-86855715D01*
X142000000Y-87330000D02*
X140890000Y-87330000D01*
X152090000Y-85556670D02*
X143460000Y-85556670D01*
X152090000Y-86501430D02*
X143460000Y-86501430D01*
X152090000Y-84966195D02*
X143460000Y-84966195D01*
X152090000Y-87330000D02*
X152090000Y-79590000D01*
X143460000Y-80560000D02*
X143050000Y-80560000D01*
X152090000Y-85674765D02*
X143460000Y-85674765D01*
X140890000Y-87330000D02*
X140890000Y-86000000D01*
X143460000Y-92900000D02*
X143050000Y-92900000D01*
X152090000Y-96537620D02*
X143460000Y-96537620D01*
X152090000Y-95120480D02*
X143460000Y-95120480D01*
X152090000Y-94884290D02*
X143460000Y-94884290D01*
X143460000Y-95440000D02*
X143110000Y-95440000D01*
X152090000Y-97130000D02*
X143460000Y-97130000D01*
X152090000Y-91990000D02*
X143460000Y-91990000D01*
X152090000Y-95002385D02*
X143460000Y-95002385D01*
X152090000Y-96773810D02*
X143460000Y-96773810D01*
X143460000Y-96160000D02*
X143110000Y-96160000D01*
X152090000Y-96065240D02*
X143460000Y-96065240D01*
X143460000Y-91080000D02*
X143050000Y-91080000D01*
X152090000Y-96183335D02*
X143460000Y-96183335D01*
X152090000Y-97010000D02*
X143460000Y-97010000D01*
X152090000Y-95710955D02*
X143460000Y-95710955D01*
X152090000Y-94530000D02*
X143460000Y-94530000D01*
X152090000Y-94648100D02*
X143460000Y-94648100D01*
X152090000Y-96891905D02*
X143460000Y-96891905D01*
X152090000Y-96419525D02*
X143460000Y-96419525D01*
X152090000Y-95947145D02*
X143460000Y-95947145D01*
X143460000Y-97130000D02*
X143460000Y-89390000D01*
X152090000Y-95592860D02*
X143460000Y-95592860D01*
X152090000Y-95829050D02*
X143460000Y-95829050D01*
X143460000Y-93620000D02*
X143050000Y-93620000D01*
X152090000Y-95238575D02*
X143460000Y-95238575D01*
X152090000Y-89390000D02*
X143460000Y-89390000D01*
X152090000Y-96655715D02*
X143460000Y-96655715D01*
X142000000Y-97130000D02*
X140890000Y-97130000D01*
X152090000Y-95356670D02*
X143460000Y-95356670D01*
X152090000Y-96301430D02*
X143460000Y-96301430D01*
X152090000Y-94766195D02*
X143460000Y-94766195D01*
X152090000Y-97130000D02*
X152090000Y-89390000D01*
X143460000Y-90360000D02*
X143050000Y-90360000D01*
X152090000Y-95474765D02*
X143460000Y-95474765D01*
X140890000Y-97130000D02*
X140890000Y-95800000D01*
X143460000Y-102900000D02*
X143050000Y-102900000D01*
X152090000Y-106537620D02*
X143460000Y-106537620D01*
X152090000Y-105120480D02*
X143460000Y-105120480D01*
X152090000Y-104884290D02*
X143460000Y-104884290D01*
X143460000Y-105440000D02*
X143110000Y-105440000D01*
X152090000Y-107130000D02*
X143460000Y-107130000D01*
X152090000Y-101990000D02*
X143460000Y-101990000D01*
X152090000Y-105002385D02*
X143460000Y-105002385D01*
X152090000Y-106773810D02*
X143460000Y-106773810D01*
X143460000Y-106160000D02*
X143110000Y-106160000D01*
X152090000Y-106065240D02*
X143460000Y-106065240D01*
X143460000Y-101080000D02*
X143050000Y-101080000D01*
X152090000Y-106183335D02*
X143460000Y-106183335D01*
X152090000Y-107010000D02*
X143460000Y-107010000D01*
X152090000Y-105710955D02*
X143460000Y-105710955D01*
X152090000Y-104530000D02*
X143460000Y-104530000D01*
X152090000Y-104648100D02*
X143460000Y-104648100D01*
X152090000Y-106891905D02*
X143460000Y-106891905D01*
X152090000Y-106419525D02*
X143460000Y-106419525D01*
X152090000Y-105947145D02*
X143460000Y-105947145D01*
X143460000Y-107130000D02*
X143460000Y-99390000D01*
X152090000Y-105592860D02*
X143460000Y-105592860D01*
X152090000Y-105829050D02*
X143460000Y-105829050D01*
X143460000Y-103620000D02*
X143050000Y-103620000D01*
X152090000Y-105238575D02*
X143460000Y-105238575D01*
X152090000Y-99390000D02*
X143460000Y-99390000D01*
X152090000Y-106655715D02*
X143460000Y-106655715D01*
X142000000Y-107130000D02*
X140890000Y-107130000D01*
X152090000Y-105356670D02*
X143460000Y-105356670D01*
X152090000Y-106301430D02*
X143460000Y-106301430D01*
X152090000Y-104766195D02*
X143460000Y-104766195D01*
X152090000Y-107130000D02*
X152090000Y-99390000D01*
X143460000Y-100360000D02*
X143050000Y-100360000D01*
X152090000Y-105474765D02*
X143460000Y-105474765D01*
X140890000Y-107130000D02*
X140890000Y-105800000D01*
X143460000Y-112600000D02*
X143050000Y-112600000D01*
X152090000Y-116237620D02*
X143460000Y-116237620D01*
X152090000Y-114820480D02*
X143460000Y-114820480D01*
X152090000Y-114584290D02*
X143460000Y-114584290D01*
X143460000Y-115140000D02*
X143110000Y-115140000D01*
X152090000Y-116830000D02*
X143460000Y-116830000D01*
X152090000Y-111690000D02*
X143460000Y-111690000D01*
X152090000Y-114702385D02*
X143460000Y-114702385D01*
X152090000Y-116473810D02*
X143460000Y-116473810D01*
X143460000Y-115860000D02*
X143110000Y-115860000D01*
X152090000Y-115765240D02*
X143460000Y-115765240D01*
X143460000Y-110780000D02*
X143050000Y-110780000D01*
X152090000Y-115883335D02*
X143460000Y-115883335D01*
X152090000Y-116710000D02*
X143460000Y-116710000D01*
X152090000Y-115410955D02*
X143460000Y-115410955D01*
X152090000Y-114230000D02*
X143460000Y-114230000D01*
X152090000Y-114348100D02*
X143460000Y-114348100D01*
X152090000Y-116591905D02*
X143460000Y-116591905D01*
X152090000Y-116119525D02*
X143460000Y-116119525D01*
X152090000Y-115647145D02*
X143460000Y-115647145D01*
X143460000Y-116830000D02*
X143460000Y-109090000D01*
X152090000Y-115292860D02*
X143460000Y-115292860D01*
X152090000Y-115529050D02*
X143460000Y-115529050D01*
X143460000Y-113320000D02*
X143050000Y-113320000D01*
X152090000Y-114938575D02*
X143460000Y-114938575D01*
X152090000Y-109090000D02*
X143460000Y-109090000D01*
X152090000Y-116355715D02*
X143460000Y-116355715D01*
X142000000Y-116830000D02*
X140890000Y-116830000D01*
X152090000Y-115056670D02*
X143460000Y-115056670D01*
X152090000Y-116001430D02*
X143460000Y-116001430D01*
X152090000Y-114466195D02*
X143460000Y-114466195D01*
X152090000Y-116830000D02*
X152090000Y-109090000D01*
X143460000Y-110060000D02*
X143050000Y-110060000D01*
X152090000Y-115174765D02*
X143460000Y-115174765D01*
X140890000Y-116830000D02*
X140890000Y-115500000D01*
X84710000Y-108750000D02*
X84710000Y-114760000D01*
X77890000Y-111000000D02*
X77890000Y-114760000D01*
X77890000Y-114760000D02*
X79150000Y-114760000D01*
X84710000Y-114760000D02*
X83450000Y-114760000D01*
M02*
