M48
; DRILL file {KiCad 6.0.5-a6ca702e91~116~ubuntu20.04.1} date jeu. 19 mai 2022 12:12:09
; FORMAT={-:-/ absolute / inch / decimal}
; #@! TF.CreationDate,2022-05-19T12:12:09+02:00
; #@! TF.GenerationSoftware,Kicad,Pcbnew,6.0.5-a6ca702e91~116~ubuntu20.04.1
; #@! TF.FileFunction,MixedPlating,1,2
FMAT,2
INCH
; #@! TA.AperFunction,Plated,PTH,ViaDrill
T1C0.0157
; #@! TA.AperFunction,Plated,PTH,ComponentDrill
T2C0.0315
; #@! TA.AperFunction,Plated,PTH,ComponentDrill
T3C0.0374
; #@! TA.AperFunction,Plated,PTH,ComponentDrill
T4C0.0394
; #@! TA.AperFunction,Plated,PTH,ComponentDrill
T5C0.0906
; #@! TA.AperFunction,Plated,PTH,ComponentDrill
T6C0.1260
%
G90
G05
T1
X1.7953Y-2.8937
X1.7953Y-3.0827
X2.311Y-3.1929
X2.311Y-3.4685
X2.315Y-2.9252
X2.3502Y-2.9557
X2.4331Y-2.9754
X2.4764Y-2.7165
X2.5157Y-2.7913
X2.5551Y-2.8578
X2.5591Y-3.0079
X2.563Y-2.9488
X2.6417Y-2.8937
X2.6535Y-2.7283
X2.6831Y-2.8937
X2.7244Y-3.0591
X2.748Y-4.3228
X2.751Y-2.627
X2.7559Y-2.8819
X2.7677Y-3.1811
X2.7795Y-2.6732
X2.7953Y-3.4567
X2.8504Y-3.9449
X2.8937Y-2.8425
X2.9921Y-4.4488
X2.9921Y-4.4882
X2.9921Y-4.5276
X2.9921Y-4.5669
X3.0315Y-4.4488
X3.0315Y-4.4882
X3.0315Y-4.5276
X3.0315Y-4.5669
X3.0709Y-4.4488
X3.0709Y-4.4882
X3.0709Y-4.5276
X3.0709Y-4.5669
X3.1102Y-4.4488
X3.1102Y-4.4882
X3.1496Y-4.4488
X3.1496Y-4.4882
X3.1693Y-2.8425
X3.1693Y-3.6063
X3.189Y-4.4488
X3.189Y-4.4882
X3.2283Y-4.4488
X3.2283Y-4.4882
X3.2677Y-4.4488
X3.2677Y-4.4882
X3.3071Y-4.4488
X3.3071Y-4.4882
X3.3071Y-4.5276
X3.3071Y-4.5669
X3.9961Y-3.4213
X4.0433Y-3.4488
X4.6142Y-2.9754
X4.6732Y-2.9488
X5.0276Y-3.2953
X5.063Y-3.2667
T2
X2.1555Y-2.8898
X2.1555Y-3.0819
T3
X2.0357Y-3.8031
X2.0357Y-3.9016
X2.1145Y-3.8031
X2.1145Y-3.9016
T4
X5.5906Y-2.7882
X5.5906Y-2.8882
X5.5906Y-2.9882
X5.5906Y-3.1858
X5.5906Y-3.2858
X5.5906Y-3.3858
X5.5906Y-3.5717
X5.5906Y-3.6717
X5.5906Y-3.7717
X5.5906Y-3.9654
X5.5906Y-4.0654
X5.5906Y-4.1654
X5.5906Y-4.3472
X5.5906Y-4.4472
X5.5906Y-4.5472
X5.5945Y-1.6465
X5.5945Y-1.7465
X5.5945Y-1.8465
X5.5945Y-2.0283
X5.5945Y-2.1283
X5.5945Y-2.2283
X5.5945Y-2.4102
X5.5945Y-2.5102
X5.5945Y-2.6102
T5
X1.9231Y-3.6161
X1.9231Y-4.0886
T6
X1.8701Y-1.6319
X1.8701Y-4.4902
X2.3583Y-3.8976
X2.3622Y-1.9685
X4.6378Y-3.8937
X4.6417Y-1.9685
X5.2047Y-1.6339
X5.2047Y-4.4902
T0
M30
