G04 #@! TF.GenerationSoftware,KiCad,Pcbnew,6.0.5-a6ca702e91~116~ubuntu20.04.1*
G04 #@! TF.CreationDate,2022-05-19T12:12:02+02:00*
G04 #@! TF.ProjectId,octoserial,6f63746f-7365-4726-9961-6c2e6b696361,rev?*
G04 #@! TF.SameCoordinates,Original*
G04 #@! TF.FileFunction,Soldermask,Bot*
G04 #@! TF.FilePolarity,Negative*
%FSLAX46Y46*%
G04 Gerber Fmt 4.6, Leading zero omitted, Abs format (unit mm)*
G04 Created by KiCad (PCBNEW 6.0.5-a6ca702e91~116~ubuntu20.04.1) date 2022-05-19 12:12:02*
%MOMM*%
%LPD*%
G01*
G04 APERTURE LIST*
G04 Aperture macros list*
%AMRoundRect*
0 Rectangle with rounded corners*
0 $1 Rounding radius*
0 $2 $3 $4 $5 $6 $7 $8 $9 X,Y pos of 4 corners*
0 Add a 4 corners polygon primitive as box body*
4,1,4,$2,$3,$4,$5,$6,$7,$8,$9,$2,$3,0*
0 Add four circle primitives for the rounded corners*
1,1,$1+$1,$2,$3*
1,1,$1+$1,$4,$5*
1,1,$1+$1,$6,$7*
1,1,$1+$1,$8,$9*
0 Add four rect primitives between the rounded corners*
20,1,$1+$1,$2,$3,$4,$5,0*
20,1,$1+$1,$4,$5,$6,$7,0*
20,1,$1+$1,$6,$7,$8,$9,0*
20,1,$1+$1,$8,$9,$2,$3,0*%
G04 Aperture macros list end*
%ADD10C,4.102000*%
%ADD11C,1.702000*%
%ADD12RoundRect,0.051000X-0.800000X0.800000X-0.800000X-0.800000X0.800000X-0.800000X0.800000X0.800000X0*%
%ADD13RoundRect,0.301000X0.625000X-0.400000X0.625000X0.400000X-0.625000X0.400000X-0.625000X-0.400000X0*%
%ADD14RoundRect,0.301000X-0.400000X-0.625000X0.400000X-0.625000X0.400000X0.625000X-0.400000X0.625000X0*%
%ADD15RoundRect,0.301000X0.650000X-0.412500X0.650000X0.412500X-0.650000X0.412500X-0.650000X-0.412500X0*%
%ADD16RoundRect,0.301000X-0.650000X0.412500X-0.650000X-0.412500X0.650000X-0.412500X0.650000X0.412500X0*%
%ADD17RoundRect,0.301000X0.412500X0.650000X-0.412500X0.650000X-0.412500X-0.650000X0.412500X-0.650000X0*%
%ADD18C,5.702000*%
%ADD19RoundRect,0.051000X0.850000X0.850000X-0.850000X0.850000X-0.850000X-0.850000X0.850000X-0.850000X0*%
%ADD20O,1.802000X1.802000*%
%ADD21C,6.502000*%
%ADD22C,1.602000*%
G04 APERTURE END LIST*
D10*
X48847500Y-103850000D03*
X48847500Y-91850000D03*
D11*
X51707500Y-99100000D03*
X51707500Y-96600000D03*
X53707500Y-96600000D03*
D12*
X53707500Y-99100000D03*
D13*
X56200000Y-88150000D03*
X56200000Y-85050000D03*
D14*
X66850000Y-64200000D03*
X69950000Y-64200000D03*
D15*
X71800000Y-80362500D03*
X71800000Y-77237500D03*
D16*
X71800000Y-71937500D03*
X71800000Y-75062500D03*
D17*
X65062500Y-77400000D03*
X61937500Y-77400000D03*
D16*
X64900000Y-69537500D03*
X64900000Y-72662500D03*
X53500000Y-85050000D03*
X53500000Y-88175000D03*
D18*
X59900000Y-99000000D03*
X117800000Y-98900000D03*
X117900000Y-50000000D03*
X60000000Y-50000000D03*
D19*
X142100000Y-46900000D03*
D20*
X142100000Y-44360000D03*
X142100000Y-41820000D03*
D19*
X142100000Y-56600000D03*
D20*
X142100000Y-54060000D03*
X142100000Y-51520000D03*
D19*
X142100000Y-66300000D03*
D20*
X142100000Y-63760000D03*
X142100000Y-61220000D03*
D19*
X142000000Y-75900000D03*
D20*
X142000000Y-73360000D03*
X142000000Y-70820000D03*
D21*
X132200000Y-114050000D03*
X47500000Y-114050000D03*
X47500000Y-41450000D03*
X132200000Y-41500000D03*
D22*
X54750000Y-73400000D03*
X54750000Y-78280000D03*
D19*
X142000000Y-86000000D03*
D20*
X142000000Y-83460000D03*
X142000000Y-80920000D03*
D19*
X142000000Y-95800000D03*
D20*
X142000000Y-93260000D03*
X142000000Y-90720000D03*
D19*
X142000000Y-105800000D03*
D20*
X142000000Y-103260000D03*
X142000000Y-100720000D03*
D19*
X142000000Y-115500000D03*
D20*
X142000000Y-112960000D03*
X142000000Y-110420000D03*
M02*
